# 3ds Max Wavefront OBJ Exporter v0.97b - (c)2007 guruware
# File Created: 18.01.2022 20:03:20

#
# object Leadersheet001
#

v  -8.5239 0.3175 4.8521
v  -8.9951 0.3175 4.3022
v  -9.4764 0.3175 4.3022
v  7.9974 0.3175 -10.6794
v  7.9974 0.3175 -4.7137
v  8.5239 0.3175 -4.7137
v  8.5239 0.3175 -10.6794
v  8.5239 0.3175 -3.9605
v  8.9951 0.3175 -3.4106
v  9.4764 0.3175 -3.4106
v  -8.5239 0.3175 -10.6794
v  -8.5239 0.3175 -4.7137
v  -7.9974 0.3175 -4.7137
v  -7.9974 0.3175 -10.6794
v  -8.5239 0.3175 -3.9605
v  -3.1750 0.3175 -4.7137
v  -3.1750 0.3175 -10.6794
v  -2.1328 0.3175 -3.6715
v  2.1328 0.3175 -3.6715
v  3.1750 0.3175 -4.7137
v  3.1750 0.3175 -10.6794
v  4.4976 0.3175 -3.4106
v  5.3848 0.3175 -3.4106
v  -4.4976 0.3175 -3.4106
v  -3.6103 0.3175 -3.4106
v  0.0000 0.3175 -3.4106
v  0.0000 0.3175 -3.6715
v  -8.9951 0.3175 -3.4106
v  -9.4764 0.3175 -3.4106
v  8.9951 0.3175 3.3304
v  9.4764 0.3175 3.3304
v  0.8872 0.3175 -3.4106
v  0.0000 0.3175 3.3304
v  0.8872 0.3175 3.3304
v  -8.1079 0.3175 -3.4106
v  -8.9951 0.3175 3.3304
v  -8.1079 0.3175 3.3304
v  -9.4764 0.3175 3.3304
v  8.9951 0.3175 4.3022
v  8.5239 0.3175 4.8521
v  9.4764 0.3175 4.3022
v  4.2619 0.3175 4.8521
v  4.4976 0.3175 4.3022
v  0.0000 0.3175 4.3022
v  0.0000 0.3175 4.8521
v  -4.4976 0.3175 4.3022
v  -4.2619 0.3175 4.8521
v  4.4976 0.3175 3.3304
v  -4.4976 0.3175 3.3304
v  5.3848 0.3175 3.3304
v  -3.6103 0.3175 3.3304
v  -9.4764 -0.3175 4.3022
v  -8.9951 -0.3175 4.3022
v  -8.5239 -0.3175 4.8521
v  8.5239 -0.3175 -4.7137
v  7.9974 -0.3175 -4.7137
v  7.9974 -0.3175 -10.6794
v  8.5239 -0.3175 -10.6794
v  9.4764 -0.3175 -3.4106
v  8.9951 -0.3175 -3.4106
v  8.5239 -0.3175 -3.9605
v  -7.9974 -0.3175 -4.7137
v  -8.5239 -0.3175 -4.7137
v  -8.5239 -0.3175 -10.6794
v  -7.9974 -0.3175 -10.6794
v  -8.5239 -0.3175 -3.9605
v  -3.1750 -0.3175 -4.7137
v  -3.1750 -0.3175 -10.6794
v  2.1328 -0.3175 -3.6715
v  -2.1328 -0.3175 -3.6715
v  3.1750 -0.3175 -4.7137
v  3.1750 -0.3175 -10.6794
v  5.3848 -0.3175 -3.4106
v  4.4976 -0.3175 -3.4106
v  -3.6103 -0.3175 -3.4106
v  -4.4976 -0.3175 -3.4106
v  0.0000 -0.3175 -3.6715
v  0.0000 -0.3175 -3.4106
v  -9.4764 -0.3175 -3.4106
v  -8.9951 -0.3175 -3.4106
v  8.9951 -0.3175 3.3304
v  9.4764 -0.3175 3.3304
v  0.0000 -0.3175 3.3304
v  0.8872 -0.3175 -3.4106
v  0.8872 -0.3175 3.3304
v  -8.9951 -0.3175 3.3304
v  -8.1079 -0.3175 -3.4106
v  -8.1079 -0.3175 3.3304
v  -9.4764 -0.3175 3.3304
v  9.4764 -0.3175 4.3022
v  8.5239 -0.3175 4.8521
v  8.9951 -0.3175 4.3022
v  0.0000 -0.3175 4.3022
v  4.4976 -0.3175 4.3022
v  4.2619 -0.3175 4.8521
v  0.0000 -0.3175 4.8521
v  -4.4976 -0.3175 4.3022
v  -4.2619 -0.3175 4.8521
v  4.4976 -0.3175 3.3304
v  -4.4976 -0.3175 3.3304
v  5.3848 -0.3175 3.3304
v  -3.6103 -0.3175 3.3304
# 102 vertices

vn 0.0000 1.0000 -0.0000
vn -0.0000 1.0000 0.0000
vn 0.0000 1.0000 0.0000
vn -0.0000 1.0000 -0.0000
vn -0.0000 -1.0000 0.0000
vn 0.0000 -1.0000 -0.0000
vn 0.0000 -1.0000 0.0000
vn -0.0000 -1.0000 -0.0000
vn -0.5000 0.0000 0.8660
vn 1.0000 0.0000 0.0000
vn 0.0000 -0.0000 -1.0000
vn 0.5000 -0.0000 -0.8660
vn 1.0000 0.0000 -0.0000
vn -1.0000 0.0000 0.0000
vn -1.0000 -0.0000 -0.0000
vn 0.0000 0.0000 1.0000
vn -0.0000 -0.0000 -1.0000
vn -0.5000 -0.0000 -0.8660
vn 1.0000 -0.0000 -0.0000
vn -1.0000 0.0000 -0.0000
vn 0.5000 0.0000 0.8660
# 21 vertex normals

vt 0.0432 0.7664 0.0000
vt 0.0604 0.7811 0.0000
vt 0.0604 0.7961 0.0000
vt 0.5285 0.2501 0.0000
vt 0.3421 0.2501 0.0000
vt 0.3421 0.2336 0.0000
vt 0.5285 0.2336 0.0000
vt 0.3186 0.2336 0.0000
vt 0.3014 0.2189 0.0000
vt 0.3014 0.2039 0.0000
vt 0.5285 0.7664 0.0000
vt 0.3421 0.7664 0.0000
vt 0.3421 0.7499 0.0000
vt 0.5285 0.7499 0.0000
vt 0.3186 0.7664 0.0000
vt 0.3421 0.5992 0.0000
vt 0.5285 0.5992 0.0000
vt 0.3095 0.5667 0.0000
vt 0.3095 0.4333 0.0000
vt 0.3421 0.4008 0.0000
vt 0.5285 0.4008 0.0000
vt 0.3014 0.3595 0.0000
vt 0.3014 0.3317 0.0000
vt 0.3014 0.6405 0.0000
vt 0.3014 0.6128 0.0000
vt 0.3014 0.5000 0.0000
vt 0.3095 0.5000 0.0000
vt 0.3014 0.7811 0.0000
vt 0.3014 0.7961 0.0000
vt 0.0907 0.2189 0.0000
vt 0.0907 0.2039 0.0000
vt 0.3014 0.4723 0.0000
vt 0.0907 0.5000 0.0000
vt 0.0907 0.4723 0.0000
vt 0.3014 0.7534 0.0000
vt 0.0907 0.7811 0.0000
vt 0.0907 0.7534 0.0000
vt 0.0907 0.7961 0.0000
vt 0.0604 0.2189 0.0000
vt 0.0432 0.2336 0.0000
vt 0.0604 0.2039 0.0000
vt 0.0432 0.3668 0.0000
vt 0.0604 0.3595 0.0000
vt 0.0604 0.5000 0.0000
vt 0.0432 0.5000 0.0000
vt 0.0604 0.6405 0.0000
vt 0.0432 0.6332 0.0000
vt 0.0907 0.3595 0.0000
vt 0.0907 0.6405 0.0000
vt 0.0907 0.3317 0.0000
vt 0.0907 0.6128 0.0000
vt 0.7454 0.5992 0.0000
vt 0.7454 0.7499 0.0000
vt 0.5590 0.7499 0.0000
vt 0.5590 0.5992 0.0000
vt 0.7780 0.4333 0.0000
vt 0.7780 0.5667 0.0000
vt 0.7454 0.4008 0.0000
vt 0.5590 0.4008 0.0000
vt 0.7454 0.2501 0.0000
vt 0.5590 0.2501 0.0000
vt 0.9840 0.7153 0.0000
vt 0.7734 0.7153 0.0000
vt 0.7734 0.6876 0.0000
vt 0.9840 0.6876 0.0000
vt 0.9840 0.6241 0.0000
vt 0.7734 0.6241 0.0000
vt 0.7734 0.5964 0.0000
vt 0.9840 0.5964 0.0000
vt 0.8606 0.4288 0.0000
vt 0.8910 0.4288 0.0000
vt 0.8910 0.5693 0.0000
vt 0.8606 0.5693 0.0000
vt 0.8606 0.5416 0.0000
vt 0.8575 0.2371 0.0000
vt 0.8878 0.2371 0.0000
vt 0.8878 0.3776 0.0000
vt 0.8575 0.3776 0.0000
vt 0.8575 0.3499 0.0000
vt 0.9840 0.7292 0.0000
vt 0.9840 0.7569 0.0000
vt 0.7734 0.7569 0.0000
vt 0.7734 0.7292 0.0000
vt 0.9840 0.6396 0.0000
vt 0.9840 0.6673 0.0000
vt 0.7734 0.6673 0.0000
vt 0.7734 0.6396 0.0000
vt 0.9192 0.5416 0.0000
vt 0.9192 0.4288 0.0000
vt 0.9495 0.4288 0.0000
vt 0.9495 0.5693 0.0000
vt 0.9192 0.5693 0.0000
vt 0.9160 0.3499 0.0000
vt 0.9160 0.2371 0.0000
vt 0.9463 0.2371 0.0000
vt 0.9463 0.3776 0.0000
vt 0.9160 0.3776 0.0000
vt 0.4067 0.1054 0.0000
vt 0.3739 0.1054 0.0000
vt 0.3739 0.0856 0.0000
vt 0.4067 0.0856 0.0000
vt 0.2736 0.1054 0.0000
vt 0.0761 0.1054 0.0000
vt 0.0761 0.0856 0.0000
vt 0.2736 0.0856 0.0000
vt 0.0642 0.1054 0.0000
vt 0.0642 0.0856 0.0000
vt 0.3316 0.1054 0.0000
vt 0.3056 0.1054 0.0000
vt 0.3056 0.0856 0.0000
vt 0.3316 0.0856 0.0000
vt 0.9358 0.1054 0.0000
vt 0.9239 0.1054 0.0000
vt 0.9239 0.0856 0.0000
vt 0.9358 0.0856 0.0000
vt 0.7264 0.1054 0.0000
vt 0.7264 0.0856 0.0000
vt 0.6944 0.1054 0.0000
vt 0.6944 0.0856 0.0000
vt 0.3555 0.1054 0.0000
vt 0.2022 0.1054 0.0000
vt 0.2022 0.0856 0.0000
vt 0.3555 0.0856 0.0000
vt 0.6445 0.1054 0.0000
vt 0.6445 0.0856 0.0000
vt 0.7978 0.1054 0.0000
vt 0.7978 0.0856 0.0000
vt 0.6684 0.1054 0.0000
vt 0.6684 0.0856 0.0000
vt 0.5680 0.1054 0.0000
vt 0.5680 0.0856 0.0000
vt 0.4320 0.1054 0.0000
vt 0.4320 0.0856 0.0000
vt 0.6261 0.1054 0.0000
vt 0.5933 0.1054 0.0000
vt 0.5933 0.0856 0.0000
vt 0.6261 0.0856 0.0000
vt 0.7489 0.1054 0.0000
vt 0.7489 0.0856 0.0000
vt 0.2511 0.1054 0.0000
vt 0.2511 0.0856 0.0000
# 141 texture coords

o Leadersheet001
g Leadersheet001
s 1
f 1/1/1 2/2/1 3/3/1 
f 4/4/1 5/5/2 6/6/3 
f 6/6/3 7/7/1 4/4/1 
f 8/8/1 9/9/1 10/10/1 
f 6/6/3 5/5/2 8/8/1 
f 11/11/1 12/12/1 13/13/1 
f 13/13/1 14/14/1 11/11/1 
f 13/13/1 12/12/1 15/15/1 
f 14/14/1 13/13/1 16/16/3 
f 16/16/3 17/17/1 14/14/1 
f 16/16/3 18/18/1 19/19/1 
f 19/19/1 20/20/3 16/16/3 
f 21/21/4 17/17/1 16/16/3 
f 16/16/3 20/20/3 21/21/4 
f 21/21/4 20/20/3 5/5/2 
f 5/5/2 4/4/1 21/21/4 
f 16/16/3 13/13/1 15/15/1 
f 15/15/1 18/18/1 16/16/3 
f 8/8/1 5/5/2 20/20/3 
f 20/20/3 19/19/1 8/8/1 
f 19/19/1 22/22/1 23/23/1 
f 19/19/1 23/23/1 9/9/1 
f 19/19/1 9/9/1 8/8/1 
f 18/18/1 24/24/1 25/25/1 
f 18/18/1 25/25/1 26/26/1 
f 18/18/1 26/26/1 27/27/1 
f 28/28/4 15/15/1 29/29/4 
f 10/10/1 9/9/1 30/30/3 
f 30/30/3 31/31/2 10/10/1 
f 32/32/1 26/26/1 33/33/3 
f 33/33/3 34/34/3 32/32/1 
f 35/35/3 28/28/4 36/36/3 
f 36/36/3 37/37/3 35/35/3 
f 3/3/1 2/2/1 36/36/3 
f 36/36/3 38/38/4 3/3/1 
f 39/39/4 40/40/4 41/41/4 
f 42/42/1 43/43/1 44/44/1 
f 44/44/1 45/45/1 42/42/1 
f 46/46/1 2/2/1 1/1/1 
f 1/1/1 47/47/1 46/46/1 
f 31/31/2 30/30/3 39/39/4 
f 39/39/4 41/41/4 31/31/2 
f 44/44/1 43/43/1 48/48/3 
f 44/44/1 48/48/3 34/34/3 
f 44/44/1 34/34/3 33/33/3 
f 2/2/1 46/46/1 49/49/3 
f 2/2/1 49/49/3 37/37/3 
f 2/2/1 37/37/3 36/36/3 
f 38/38/4 36/36/3 28/28/4 
f 28/28/4 29/29/4 38/38/4 
f 22/22/1 48/48/3 50/50/3 
f 50/50/3 23/23/1 22/22/1 
f 24/24/1 49/49/3 51/51/3 
f 51/51/3 25/25/1 24/24/1 
f 43/43/1 42/42/1 40/40/4 
f 40/40/4 39/39/4 43/43/1 
f 44/44/1 46/46/1 47/47/1 
f 47/47/1 45/45/1 44/44/1 
f 39/39/4 30/30/3 50/50/3 
f 39/39/4 50/50/3 48/48/3 
f 39/39/4 48/48/3 43/43/1 
f 44/44/1 33/33/3 51/51/3 
f 44/44/1 51/51/3 49/49/3 
f 44/44/1 49/49/3 46/46/1 
f 19/19/1 27/27/1 26/26/1 
f 19/19/1 26/26/1 32/32/1 
f 19/19/1 32/32/1 22/22/1 
f 15/15/1 28/28/4 35/35/3 
f 15/15/1 35/35/3 24/24/1 
f 15/15/1 24/24/1 18/18/1 
f 32/32/1 34/34/3 48/48/3 
f 48/48/3 22/22/1 32/32/1 
f 35/35/3 37/37/3 49/49/3 
f 49/49/3 24/24/1 35/35/3 
f 23/23/1 50/50/3 30/30/3 
f 30/30/3 9/9/1 23/23/1 
f 25/25/1 51/51/3 33/33/3 
f 33/33/3 26/26/1 25/25/1 
f 52/3/5 53/2/5 54/1/5 
f 55/6/6 56/5/6 57/4/7 
f 57/4/7 58/7/7 55/6/6 
f 59/10/5 60/9/5 61/8/5 
f 61/8/5 56/5/6 55/6/6 
f 62/13/5 63/12/5 64/11/5 
f 64/11/5 65/14/7 62/13/5 
f 66/15/5 63/12/5 62/13/5 
f 67/52/8 62/53/5 65/54/7 
f 65/54/7 68/55/7 67/52/8 
f 69/56/5 70/57/5 67/52/8 
f 67/52/8 71/58/8 69/56/5 
f 67/52/8 68/55/7 72/59/7 
f 72/59/7 71/58/8 67/52/8 
f 56/60/6 71/58/8 72/59/7 
f 72/59/7 57/61/7 56/60/6 
f 66/15/5 62/13/5 67/16/8 
f 67/16/8 70/18/5 66/15/5 
f 71/20/8 56/5/6 61/8/5 
f 61/8/5 69/19/5 71/20/8 
f 73/23/7 74/22/7 69/19/5 
f 69/19/5 61/8/5 60/9/5 
f 73/23/7 69/19/5 60/9/5 
f 75/25/7 76/24/5 70/18/5 
f 70/18/5 77/27/5 78/26/5 
f 75/25/7 70/18/5 78/26/5 
f 79/29/7 66/15/5 80/28/7 
f 81/30/8 60/9/5 59/10/5 
f 59/10/5 82/31/6 81/30/8 
f 83/62/6 78/63/5 84/64/7 
f 84/64/7 85/65/6 83/62/6 
f 86/66/8 80/67/7 87/68/8 
f 87/68/8 88/69/6 86/66/8 
f 86/36/8 53/2/5 52/3/5 
f 52/3/5 89/38/7 86/36/8 
f 90/41/7 91/40/7 92/39/7 
f 93/44/5 94/43/7 95/42/5 
f 95/42/5 96/45/5 93/44/5 
f 54/1/5 53/2/5 97/46/7 
f 97/46/7 98/47/5 54/1/5 
f 92/39/7 81/30/8 82/31/6 
f 82/31/6 90/41/7 92/39/7 
f 99/70/6 94/71/7 93/72/5 
f 93/72/5 83/73/6 85/74/6 
f 99/70/6 93/72/5 85/74/6 
f 100/75/6 97/76/7 53/77/5 
f 53/77/5 86/78/8 88/79/6 
f 100/75/6 53/77/5 88/79/6 
f 80/28/7 86/36/8 89/38/7 
f 89/38/7 79/29/7 80/28/7 
f 101/80/6 99/81/6 74/82/7 
f 74/82/7 73/83/7 101/80/6 
f 102/84/6 100/85/6 76/86/5 
f 76/86/5 75/87/7 102/84/6 
f 91/40/7 95/42/5 94/43/7 
f 94/43/7 92/39/7 91/40/7 
f 98/47/5 97/46/7 93/44/5 
f 93/44/5 96/45/5 98/47/5 
f 101/88/6 81/89/8 92/90/7 
f 92/90/7 94/91/7 99/92/6 
f 101/88/6 92/90/7 99/92/6 
f 102/93/6 83/94/6 93/95/5 
f 93/95/5 97/96/7 100/97/6 
f 102/93/6 93/95/5 100/97/6 
f 78/26/5 77/27/5 69/19/5 
f 69/19/5 74/22/7 84/32/7 
f 78/26/5 69/19/5 84/32/7 
f 87/35/8 80/28/7 66/15/5 
f 66/15/5 70/18/5 76/24/5 
f 87/35/8 66/15/5 76/24/5 
f 99/48/6 85/34/6 84/32/7 
f 84/32/7 74/22/7 99/48/6 
f 100/49/6 88/37/6 87/35/8 
f 87/35/8 76/24/5 100/49/6 
f 81/30/8 101/50/6 73/23/7 
f 73/23/7 60/9/5 81/30/8 
f 83/33/6 102/51/6 75/25/7 
f 75/25/7 78/26/5 83/33/6 
s 2
f 52/98/9 54/99/9 1/100/9 
f 1/100/9 3/101/9 52/98/9 
f 55/102/10 58/103/10 7/104/10 
f 7/104/10 6/105/10 55/102/10 
s 4
f 58/103/11 57/106/11 4/107/11 
f 4/107/11 7/104/11 58/103/11 
f 59/108/12 61/109/12 8/110/12 
f 8/110/12 10/111/12 59/108/12 
s 2
f 61/109/13 55/102/10 6/105/10 
f 6/105/10 8/110/13 61/109/13 
s 4
f 65/112/11 64/113/11 11/114/11 
f 11/114/11 14/115/11 65/112/11 
s 2
f 64/113/14 63/116/15 12/117/15 
f 12/117/15 11/114/14 64/113/14 
f 63/116/15 66/118/15 15/119/15 
f 15/119/15 12/117/15 63/116/15 
s 4
f 68/120/11 65/121/11 14/122/11 
f 14/122/11 17/123/11 68/120/11 
s 2
f 70/18/16 69/19/16 19/19/16 
f 19/19/16 18/18/16 70/18/16 
s 4
f 72/124/11 68/120/11 17/123/11 
f 17/123/11 21/125/11 72/124/11 
f 57/126/11 72/124/11 21/125/11 
f 21/125/11 4/127/11 57/126/11 
f 77/27/17 70/18/17 18/18/17 
f 18/18/17 27/27/17 77/27/17 
f 66/118/18 79/128/18 29/129/18 
f 29/129/18 15/119/18 66/118/18 
s 2
f 82/130/19 59/108/19 10/111/19 
f 10/111/19 31/131/19 82/130/19 
s 8
f 89/132/20 52/98/20 3/101/20 
f 3/101/20 38/133/20 89/132/20 
s 4
f 91/134/21 90/135/21 41/136/21 
f 41/136/21 40/137/21 91/134/21 
s 8
f 96/112/16 95/138/16 42/139/16 
f 42/139/16 45/115/16 96/112/16 
f 54/99/16 98/140/16 47/141/16 
f 47/141/16 1/100/16 54/99/16 
s 2
f 90/135/19 82/130/19 31/131/19 
f 31/131/19 41/136/19 90/135/19 
s 8
f 79/128/20 89/132/20 38/133/20 
f 38/133/20 29/129/20 79/128/20 
f 95/138/16 91/134/16 40/137/16 
f 40/137/16 42/139/16 95/138/16 
f 98/140/16 96/106/16 45/107/16 
f 45/107/16 47/141/16 98/140/16 
s 4
f 69/19/17 77/27/17 27/27/17 
f 27/27/17 19/19/17 69/19/17 
# 204 faces

