# 3ds Max Wavefront OBJ Exporter v0.97b - (c)2007 guruware
# File Created: 16.01.2022 23:04:26

#
# object Untintable
#

v  8.5239 -0.3175 -3.9605
v  0.0000 -0.3175 -8.8818
v  0.9525 -0.3175 -9.4317
v  8.5239 -0.3175 -5.0604
v  -8.5239 -0.3175 -3.9605
v  -8.5239 -0.3175 -5.0604
v  -0.9525 -0.3175 -9.4317
v  -8.5239 -0.3175 5.8820
v  -9.4764 -0.3175 5.3321
v  -9.4764 -0.3175 -3.4106
v  8.5239 -0.3175 6.6351
v  8.5239 -0.3175 12.6009
v  7.9974 -0.3175 12.6009
v  7.9974 -0.3175 6.6351
v  9.4764 -0.3175 -3.4106
v  9.4764 -0.3175 5.3321
v  8.5239 -0.3175 5.8820
v  -0.0000 -0.3175 0.9607
v  -2.1328 -0.3175 5.5930
v  6.6824 -0.3175 -3.9605
v  0.9208 -0.3175 -7.2870
v  0.9208 -0.3175 -0.6340
v  -7.6031 -0.3175 -2.3657
v  -7.6031 -0.3175 4.2872
v  -1.8415 -0.3175 0.9607
v  -0.9208 -0.3175 -7.2870
v  -6.6824 -0.3175 -3.9605
v  -0.9208 -0.3175 -0.6340
v  2.1328 -0.3175 5.5930
v  7.5714 -0.3175 6.0753
v  7.5714 -0.3175 -2.3107
v  3.0049 -0.3175 0.3257
v  3.1750 -0.3175 6.6351
v  3.0049 -0.3175 6.0753
v  -7.9974 -0.3175 6.6351
v  -7.9974 -0.3175 12.6009
v  -8.5239 -0.3175 12.6009
v  -8.5239 -0.3175 6.6351
v  -3.1750 -0.3175 6.6351
v  0.9525 0.3175 -9.4317
v  0.0000 0.3175 -8.8818
v  8.5239 0.3175 -3.9605
v  8.5239 0.3175 -5.0604
v  -8.5239 0.3175 -5.0604
v  -8.5239 0.3175 -3.9605
v  -0.9525 0.3175 -9.4317
v  -9.4764 0.3175 -3.4106
v  -9.4764 0.3175 5.3321
v  -8.5239 0.3175 5.8820
v  7.9974 0.3175 12.6009
v  8.5239 0.3175 12.6009
v  8.5239 0.3175 6.6351
v  7.9974 0.3175 6.6351
v  9.4764 0.3175 5.3321
v  9.4764 0.3175 -3.4106
v  8.5239 0.3175 5.8820
v  -2.1328 0.3175 5.5930
v  -0.0000 0.3175 0.9607
v  0.9208 0.3175 -7.2870
v  6.6824 0.3175 -3.9605
v  0.9208 0.3175 -0.6340
v  -7.6031 0.3175 4.2872
v  -7.6031 0.3175 -2.3657
v  -1.8415 0.3175 0.9607
v  -6.6824 0.3175 -3.9605
v  -0.9208 0.3175 -7.2870
v  -0.9208 0.3175 -0.6340
v  2.1328 0.3175 5.5930
v  7.5714 0.3175 -2.3107
v  7.5714 0.3175 6.0753
v  3.0049 0.3175 0.3257
v  3.1750 0.3175 6.6351
v  3.0049 0.3175 6.0753
v  -8.5239 0.3175 12.6009
v  -7.9974 0.3175 12.6009
v  -7.9974 0.3175 6.6351
v  -8.5239 0.3175 6.6351
v  -3.1750 0.3175 6.6351
v  -3.1750 0.3175 12.6009
v  -3.1750 -0.3175 12.6009
v  3.1750 0.3175 12.6009
v  3.1750 -0.3175 12.6009
v  2.8413 -0.3175 -3.9605
v  -5.6826 -0.3175 0.9607
v  -2.8413 -0.3175 -3.9605
v  2.8413 0.3175 -3.9605
v  -5.6826 0.3175 0.9607
v  -2.8413 0.3175 -3.9605
# 88 vertices

vn -0.0000 -1.0000 -0.0000
vn 0.0000 -1.0000 -0.0000
vn 0.0000 1.0000 0.0000
vn -0.0000 1.0000 0.0000
vn 0.5000 0.0000 -0.8660
vn 1.0000 0.0000 0.0000
vn -0.5000 0.0000 -0.8660
vn -1.0000 0.0000 -0.0000
vn -0.5000 0.0000 0.8660
vn 0.0000 0.0000 1.0000
vn 1.0000 0.0000 -0.0000
vn 0.5000 0.0000 0.8660
vn -1.0000 0.0000 0.0000
# 13 vertex normals

vt 0.1981 0.2903 0.0000
vt 0.0340 0.5747 0.0000
vt 0.0156 0.5429 0.0000
vt 0.1614 0.2903 0.0000
vt 0.1981 0.8590 0.0000
vt 0.1614 0.8590 0.0000
vt 0.0156 0.6065 0.0000
vt 0.5265 0.8590 0.0000
vt 0.5081 0.8908 0.0000
vt 0.2165 0.8908 0.0000
vt 0.5516 0.2903 0.0000
vt 0.7506 0.2903 0.0000
vt 0.7506 0.3079 0.0000
vt 0.5516 0.3079 0.0000
vt 0.2165 0.2586 0.0000
vt 0.5081 0.2586 0.0000
vt 0.5265 0.2903 0.0000
vt 0.3623 0.5747 0.0000
vt 0.5168 0.6458 0.0000
vt 0.1981 0.3518 0.0000
vt 0.0872 0.5440 0.0000
vt 0.3091 0.5440 0.0000
vt 0.2513 0.8283 0.0000
vt 0.4733 0.8283 0.0000
vt 0.3623 0.6361 0.0000
vt 0.0872 0.6054 0.0000
vt 0.1981 0.7976 0.0000
vt 0.3091 0.6054 0.0000
vt 0.5168 0.5035 0.0000
vt 0.5329 0.3221 0.0000
vt 0.2532 0.3221 0.0000
vt 0.3411 0.4744 0.0000
vt 0.5516 0.4688 0.0000
vt 0.5329 0.4744 0.0000
vt 0.5516 0.8415 0.0000
vt 0.7506 0.8415 0.0000
vt 0.7506 0.8590 0.0000
vt 0.5516 0.8590 0.0000
vt 0.5516 0.6806 0.0000
vt 0.2181 0.9140 0.0000
vt 0.7819 0.9140 0.0000
vt 0.7819 0.9452 0.0000
vt 0.2181 0.9452 0.0000
vt 0.4707 0.9140 0.0000
vt 0.5293 0.9140 0.0000
vt 0.5293 0.9452 0.0000
vt 0.4707 0.9452 0.0000
vt 0.4704 0.9140 0.0000
vt 0.5296 0.9140 0.0000
vt 0.5296 0.9452 0.0000
vt 0.4704 0.9452 0.0000
vt 0.4686 0.9140 0.0000
vt 0.5314 0.9140 0.0000
vt 0.5314 0.9452 0.0000
vt 0.4686 0.9452 0.0000
vt 0.4690 0.9140 0.0000
vt 0.5310 0.9140 0.0000
vt 0.5310 0.9452 0.0000
vt 0.4690 0.9452 0.0000
vt 0.2047 0.9140 0.0000
vt 0.7953 0.9140 0.0000
vt 0.7953 0.9452 0.0000
vt 0.2047 0.9452 0.0000
vt 0.3810 0.9140 0.0000
vt 0.6190 0.9140 0.0000
vt 0.6190 0.9452 0.0000
vt 0.3810 0.9452 0.0000
vt 0.3707 0.9140 0.0000
vt 0.6293 0.9140 0.0000
vt 0.6293 0.9452 0.0000
vt 0.3707 0.9452 0.0000
vt 0.4895 0.9140 0.0000
vt 0.5105 0.9140 0.0000
vt 0.5105 0.9452 0.0000
vt 0.4895 0.9452 0.0000
vt 0.3077 0.9140 0.0000
vt 0.6923 0.9140 0.0000
vt 0.6923 0.9452 0.0000
vt 0.3077 0.9452 0.0000
vt 0.4767 0.9140 0.0000
vt 0.5233 0.9140 0.0000
vt 0.5233 0.9452 0.0000
vt 0.4767 0.9452 0.0000
vt 0.7506 0.6806 0.0000
vt 0.7506 0.4688 0.0000
vt 0.1981 0.4799 0.0000
vt 0.3623 0.7642 0.0000
vt 0.1981 0.6695 0.0000
vt 0.9496 0.6806 0.0000
vt 0.9496 0.8415 0.0000
vt 0.9496 0.4688 0.0000
vt 0.9844 0.5035 0.0000
vt 0.9844 0.6458 0.0000
vt 0.9496 0.3079 0.0000
vt 0.7178 0.1829 0.0000
vt 0.7178 0.0548 0.0000
vt 0.8288 0.2470 0.0000
vt 0.6069 0.2470 0.0000
vt 0.4636 0.1829 0.0000
vt 0.5746 0.2470 0.0000
vt 0.3527 0.2470 0.0000
vt 0.4636 0.0548 0.0000
vt 0.5907 0.1189 0.0000
vt 0.7017 0.0548 0.0000
vt 0.5907 0.2470 0.0000
vt 0.4798 0.0548 0.0000
vt 0.1557 0.0747 0.0000
vt 0.4354 0.0747 0.0000
vt 0.3475 0.2271 0.0000
vt 0.1557 0.2271 0.0000
# 110 texture coords

o Untintable
g Untintable
s 1
f 1/1/1 2/2/2 3/3/2 
f 3/3/2 4/4/1 1/1/1 
f 2/2/2 5/5/2 6/6/2 
f 6/6/2 7/7/1 2/2/2 
f 8/8/1 9/9/1 10/10/2 
f 10/10/2 5/5/2 8/8/1 
f 11/11/2 12/12/2 13/13/2 
f 13/13/2 14/14/2 11/11/2 
f 1/1/1 15/15/1 16/16/2 
f 16/16/2 17/17/2 1/1/1 
f 18/18/1 19/19/2 8/8/1 
f 8/8/1 18/18/1 18/18/1 
f 20/20/1 21/21/2 2/2/2 
f 2/2/2 1/1/1 20/20/1 
f 22/22/1 20/20/1 1/1/1 
f 1/1/1 18/18/1 22/22/1 
f 21/21/2 22/22/1 18/18/1 
f 18/18/1 2/2/2 21/21/2 
f 23/23/2 24/24/2 8/8/1 
f 8/8/1 5/5/2 23/23/2 
f 25/25/2 23/23/2 5/5/2 
f 5/5/2 18/18/1 25/25/2 
f 24/24/2 25/25/2 18/18/1 
f 18/18/1 8/8/1 24/24/2 
f 26/26/1 27/27/1 5/5/2 
f 5/5/2 2/2/2 26/26/1 
f 28/28/2 26/26/1 2/2/2 
f 2/2/2 18/18/1 28/28/2 
f 27/27/1 28/28/2 18/18/1 
f 18/18/1 5/5/2 27/27/1 
f 18/18/1 29/29/1 19/19/2 
f 30/30/2 31/31/2 1/1/1 
f 1/1/1 17/17/2 30/30/2 
f 31/31/2 32/32/2 18/18/1 
f 18/18/1 1/1/1 31/31/2 
f 18/18/1 32/32/2 29/29/1 
f 29/29/1 18/18/1 18/18/1 
f 30/30/2 14/14/2 33/33/1 
f 33/33/1 34/34/1 30/30/2 
f 33/33/1 29/29/1 34/34/1 
f 32/32/2 34/34/1 29/29/1 
f 14/14/2 30/30/2 17/17/2 
f 17/17/2 11/11/2 14/14/2 
f 35/35/2 36/36/2 37/37/2 
f 37/37/2 38/38/2 35/35/2 
f 35/35/2 38/38/2 8/8/1 
f 8/8/1 19/19/2 39/39/2 
f 39/39/2 35/35/2 8/8/1 
f 40/3/3 41/2/3 42/1/3 
f 42/1/3 43/4/3 40/3/3 
f 44/6/4 45/5/4 41/2/3 
f 41/2/3 46/7/4 44/6/4 
f 47/10/4 48/9/3 49/8/3 
f 49/8/3 45/5/4 47/10/4 
f 50/13/3 51/12/3 52/11/3 
f 52/11/3 53/14/4 50/13/3 
f 54/16/4 55/15/3 42/1/3 
f 42/1/3 56/17/4 54/16/4 
f 49/8/3 57/19/4 58/18/3 
f 58/18/3 58/18/3 49/8/3 
f 41/2/3 59/21/4 60/20/4 
f 60/20/4 42/1/3 41/2/3 
f 42/1/3 60/20/4 61/22/4 
f 61/22/4 58/18/3 42/1/3 
f 58/18/3 61/22/4 59/21/4 
f 59/21/4 41/2/3 58/18/3 
f 49/8/3 62/24/3 63/23/3 
f 63/23/3 45/5/4 49/8/3 
f 45/5/4 63/23/3 64/25/4 
f 64/25/4 58/18/3 45/5/4 
f 58/18/3 64/25/4 62/24/3 
f 62/24/3 49/8/3 58/18/3 
f 45/5/4 65/27/3 66/26/4 
f 66/26/4 41/2/3 45/5/4 
f 41/2/3 66/26/4 67/28/3 
f 67/28/3 58/18/3 41/2/3 
f 58/18/3 67/28/3 65/27/3 
f 65/27/3 45/5/4 58/18/3 
f 57/19/4 68/29/3 58/18/3 
f 42/1/3 69/31/4 70/30/4 
f 70/30/4 56/17/4 42/1/3 
f 58/18/3 71/32/4 69/31/4 
f 69/31/4 42/1/3 58/18/3 
f 68/29/3 71/32/4 58/18/3 
f 58/18/3 58/18/3 68/29/3 
f 72/33/3 53/14/4 70/30/4 
f 70/30/4 73/34/3 72/33/3 
f 73/34/3 68/29/3 72/33/3 
f 68/29/3 73/34/3 71/32/4 
f 56/17/4 70/30/4 53/14/4 
f 53/14/4 52/11/3 56/17/4 
f 74/37/4 75/36/3 76/35/4 
f 76/35/4 77/38/4 74/37/4 
f 49/8/3 77/38/4 76/35/4 
f 78/39/4 57/19/4 49/8/3 
f 49/8/3 76/35/4 78/39/4 
s 2
f 40/40/5 43/41/5 4/42/5 
f 4/42/5 3/43/5 40/40/5 
s 4
f 43/44/6 42/45/6 1/46/6 
f 1/46/6 4/47/6 43/44/6 
f 41/48/7 40/49/7 3/50/7 
f 3/50/7 2/51/7 41/48/7 
s 2
f 44/40/7 46/41/7 7/42/7 
f 7/42/7 6/43/7 44/40/7 
s 8
f 46/48/5 41/49/5 2/50/5 
f 2/50/5 7/51/5 46/48/5 
s 4
f 45/44/8 44/45/8 6/46/8 
f 6/46/8 5/47/8 45/44/8 
s 2
f 47/52/7 45/53/7 5/54/7 
f 5/54/7 10/55/7 47/52/7 
f 49/56/9 48/57/9 9/58/9 
f 9/58/9 8/59/9 49/56/9 
s 4
f 48/60/8 47/61/8 10/62/8 
f 10/62/8 9/63/8 48/60/8 
s 2
f 79/64/10 75/65/10 36/66/10 
f 36/66/10 80/67/10 79/64/10 
s 4
f 52/68/11 51/69/11 12/70/11 
f 12/70/11 11/71/11 52/68/11 
s 2
f 51/72/10 50/73/10 13/74/10 
f 13/74/10 12/75/10 51/72/10 
f 54/56/12 56/57/12 17/58/12 
f 17/58/12 16/59/12 54/56/12 
f 42/52/5 55/53/5 15/54/5 
f 15/54/5 1/55/5 42/52/5 
s 4
f 55/60/6 54/61/6 16/62/6 
f 16/62/6 15/63/6 55/60/6 
s 2
f 81/76/10 79/77/10 80/78/10 
f 80/78/10 82/79/10 81/76/10 
s 4
f 56/80/11 52/81/11 11/82/11 
f 11/82/11 17/83/11 56/80/11 
f 74/68/8 77/69/13 38/70/13 
f 38/70/13 37/71/8 74/68/8 
s 2
f 75/72/10 74/73/10 37/74/10 
f 37/74/10 36/75/10 75/72/10 
f 50/64/10 81/65/10 82/66/10 
f 82/66/10 13/67/10 50/64/10 
s 4
f 77/80/13 49/81/13 8/82/13 
f 8/82/13 38/83/13 77/80/13 
s 1
f 39/39/2 80/84/2 36/36/2 
f 36/36/2 35/35/2 39/39/2 
f 29/29/1 33/33/1 39/39/2 
f 39/39/2 19/19/2 29/29/1 
f 39/39/2 33/33/1 82/85/1 
f 82/85/1 80/84/2 39/39/2 
f 14/14/2 13/13/2 82/85/1 
f 82/85/1 33/33/1 14/14/2 
f 21/21/2 20/20/1 83/86/2 
f 20/20/1 22/22/1 83/86/2 
f 22/22/1 21/21/2 83/86/2 
f 24/24/2 23/23/2 84/87/2 
f 23/23/2 25/25/2 84/87/2 
f 25/25/2 24/24/2 84/87/2 
f 27/27/1 26/26/1 85/88/1 
f 26/26/1 28/28/2 85/88/1 
f 28/28/2 27/27/1 85/88/1 
f 75/36/3 79/84/3 78/89/4 
f 78/89/4 76/90/4 75/36/3 
f 78/89/4 72/91/3 68/92/3 
f 68/92/3 57/93/4 78/89/4 
f 81/85/3 72/91/3 78/89/4 
f 78/89/4 79/84/3 81/85/3 
f 81/85/3 50/13/3 53/94/4 
f 53/94/4 72/91/3 81/85/3 
f 86/95/3 60/96/4 59/97/4 
f 86/95/3 61/98/4 60/96/4 
f 86/95/3 59/97/4 61/98/4 
f 87/99/4 63/100/3 62/101/3 
f 87/99/4 64/102/4 63/100/3 
f 87/99/4 62/101/3 64/102/4 
f 88/103/4 66/104/4 65/105/3 
f 88/103/4 67/106/3 66/104/4 
f 88/103/4 65/105/3 67/106/3 
f 32/32/2 31/31/2 30/30/2 
f 30/30/2 34/34/1 32/32/2 
f 70/107/4 69/108/4 71/109/4 
f 71/109/4 73/110/3 70/107/4 
# 176 faces

