# 3ds Max Wavefront OBJ Exporter v0.97b - (c)2007 guruware
# File Created: 18.01.2022 11:56:23

#
# object StrategyCard
#

v  -3.8100 0.1587 3.3020
v  4.1275 0.1587 3.3020
v  4.1275 0.1587 -0.4707
v  -3.2854 0.1587 -3.3020
v  -4.1275 0.1587 -2.7305
v  -4.1275 0.1587 2.9845
v  4.1275 -0.1587 -0.4707
v  4.1275 -0.1587 3.3020
v  -3.8100 -0.1587 3.3020
v  -3.2854 -0.1587 -3.3020
v  -4.1275 -0.1587 -2.7305
v  -4.1275 -0.1587 2.9845
# 12 vertices

vn 0.0000 1.0000 -0.0000
vn 0.0000 -1.0000 -0.0000
vn 0.3568 0.0000 -0.9342
vn 0.0000 0.0000 1.0000
vn 1.0000 0.0000 -0.0000
vn -1.0000 0.0000 -0.0000
vn -0.7071 0.0000 0.7071
vn -0.5616 0.0000 -0.8274
# 8 vertex normals

vt 0.0188 0.9471 0.0000
vt 0.0188 0.0156 0.0000
vt 0.4615 0.0156 0.0000
vt 0.7937 0.8856 0.0000
vt 0.7267 0.9844 0.0000
vt 0.0560 0.9844 0.0000
vt 0.7869 0.0256 0.0000
vt 0.9920 0.0256 0.0000
vt 0.9920 0.4571 0.0000
vt 0.6330 0.4286 0.0000
vt 0.6641 0.4744 0.0000
vt 0.9747 0.4744 0.0000
vt 0.9591 0.9921 0.0000
vt 0.9591 0.5079 0.0000
vt 0.9784 0.5079 0.0000
vt 0.9784 0.9921 0.0000
vt 0.9591 0.9922 0.0000
vt 0.9591 0.5078 0.0000
vt 0.9784 0.5078 0.0000
vt 0.9784 0.9922 0.0000
vt 0.9591 0.8651 0.0000
vt 0.9591 0.6349 0.0000
vt 0.9784 0.6349 0.0000
vt 0.9784 0.8651 0.0000
vt 0.9591 0.9244 0.0000
vt 0.9591 0.5756 0.0000
vt 0.9784 0.5756 0.0000
vt 0.9784 0.9244 0.0000
vt 0.9591 0.7637 0.0000
vt 0.9591 0.7363 0.0000
vt 0.9784 0.7363 0.0000
vt 0.9784 0.7637 0.0000
vt 0.9591 0.7811 0.0000
vt 0.9591 0.7189 0.0000
vt 0.9784 0.7189 0.0000
vt 0.9784 0.7811 0.0000
# 36 texture coords

o StrategyCard
g StrategyCard
s 1
f 1/1/1 2/2/1 3/3/1 
f 3/3/1 4/4/1 1/1/1 
f 1/1/1 4/4/1 5/5/1 
f 5/5/1 6/6/1 1/1/1 
f 7/7/2 8/8/2 9/9/2 
f 9/9/2 10/10/2 7/7/2 
f 11/11/2 10/10/2 9/9/2 
f 9/9/2 12/12/2 11/11/2 
s 2
f 7/13/3 10/14/3 4/15/3 
f 4/15/3 3/16/3 7/13/3 
f 9/17/4 8/18/4 2/19/4 
f 2/19/4 1/20/4 9/17/4 
s 4
f 8/21/5 7/22/5 3/23/5 
f 3/23/5 2/24/5 8/21/5 
s 2
f 11/25/6 12/26/6 6/27/6 
f 6/27/6 5/28/6 11/25/6 
s 4
f 12/29/7 9/30/7 1/31/7 
f 1/31/7 6/32/7 12/29/7 
f 10/33/8 11/34/8 5/35/8 
f 5/35/8 4/36/8 10/33/8 
# 20 faces

