# 3ds Max Wavefront OBJ Exporter v0.97b - (c)2007 guruware
# File Created: 16.01.2022 14:14:37

#
# object Tile
#

v  5.0000 0.1270 2.8868
v  0.0000 0.1270 -0.0000
v  0.0000 0.1270 5.7735
v  5.0000 0.1270 -2.8868
v  -0.0000 0.1270 -5.7735
v  -5.0000 0.1270 -2.8868
v  -5.0000 0.1270 2.8868
v  -5.0000 0.0000 -2.8868
v  -5.0000 0.0000 2.8868
v  -0.0000 0.0000 -5.7735
v  5.0000 0.0000 -2.8868
v  5.0000 0.0000 2.8868
v  0.0000 0.0000 5.7735
# 13 vertices

vn 0.0000 1.0000 -0.0000
vn -0.8660 0.0000 -0.5000
vn -0.8660 -0.0000 0.5000
vn -0.8660 0.0000 0.5000
vn -0.0000 -0.0000 -1.0000
vn 0.8660 -0.0000 -0.5000
vn 0.8660 -0.0000 0.5000
vn 0.0000 -0.0000 1.0000
vn -0.0000 0.0000 1.0000
# 9 vertex normals

vt 0.2833 0.1247 0.0000
vt 0.5000 0.5000 0.0000
vt 0.0666 0.5000 0.0000
vt 0.7167 0.1247 0.0000
vt 0.9334 0.5000 0.0000
vt 0.7167 0.8753 0.0000
vt 0.2833 0.8753 0.0000
vt 0.7167 0.0360 0.0000
vt 0.2833 0.0360 0.0000
vt 0.2833 0.0265 0.0000
vt 0.7167 0.0265 0.0000
# 11 texture coords

o Tile
g Tile
s 4
f 1/1/1 2/2/1 3/3/1 
f 4/4/1 2/2/1 1/1/1 
f 5/5/1 2/2/1 4/4/1 
f 6/6/1 2/2/1 5/5/1 
f 7/7/1 2/2/1 6/6/1 
f 2/2/1 7/7/1 3/3/1 
s 1
f 8/8/2 9/9/3 7/10/4 
f 7/10/4 6/11/2 8/8/2 
f 10/8/5 8/9/2 6/10/2 
f 6/10/2 5/11/5 10/8/5 
f 11/8/6 10/9/5 5/10/5 
f 5/10/5 4/11/6 11/8/6 
f 12/8/7 11/9/6 4/10/6 
f 4/10/6 1/11/7 12/8/7 
f 13/8/8 12/9/7 1/10/7 
f 1/10/7 3/11/9 13/8/8 
f 9/8/3 13/9/8 3/10/9 
f 3/10/9 7/11/4 9/8/3 
# 18 faces

