# 3ds Max Wavefront OBJ Exporter v0.97b - (c)2007 guruware
# File Created: 16.01.2022 14:21:29

#
# object Standalone_Reverse
#

v  0.5279 0.1270 5.4687
v  4.4721 0.1270 3.1915
v  -0.0000 0.1270 -0.0000
v  5.0000 0.1270 2.2771
v  5.0000 0.1270 -2.2772
v  4.4721 0.1270 -3.1916
v  0.5279 0.1270 -5.4687
v  -0.5279 0.1270 -5.4687
v  -4.4721 0.1270 -3.1915
v  -5.0000 0.1270 -2.2771
v  -5.0000 0.1270 2.2772
v  -4.4721 0.1270 3.1916
v  -0.5279 0.1270 5.4687
v  0.0000 0.1270 5.7735
v  5.0000 0.1270 2.8867
v  5.0000 0.1270 -2.8868
v  -0.0000 0.1270 -5.7735
v  -5.0000 0.1270 -2.8867
v  -5.0000 0.1270 2.8868
v  -5.8410 0.1270 -0.8461
v  -5.5445 0.1270 -2.1641
v  -5.7446 0.1270 -2.4614
v  -5.8929 0.1270 -1.8025
v  -5.0882 0.1270 -2.0827
v  -5.2904 0.1270 1.6187
v  -5.2162 0.1270 -1.9747
v  -5.5398 0.1270 0.8644
v  -5.3659 0.1270 -1.9884
v  -5.7299 0.1270 0.0495
v  -5.9448 0.1270 -2.7588
v  -2.1877 0.1270 -5.4816
v  -0.8981 0.1270 -5.8837
v  -0.7407 0.1270 -6.2057
v  -1.3855 0.1270 -6.0046
v  -0.7404 0.1270 -5.4479
v  -4.0470 0.1270 -3.7723
v  -0.8979 0.1270 -5.5048
v  -3.5185 0.1270 -4.3654
v  -0.9610 0.1270 -5.6412
v  -2.9079 0.1270 -4.9375
v  -0.5832 0.1270 -6.5277
v  3.6533 0.1270 -4.6354
v  4.6464 0.1270 -3.7196
v  5.0040 0.1270 -3.7443
v  4.5074 0.1270 -4.2022
v  4.3478 0.1270 -3.3651
v  1.2434 0.1270 -5.3910
v  4.3183 0.1270 -3.5300
v  2.0213 0.1270 -5.2298
v  4.4049 0.1270 -3.6528
v  2.8221 0.1270 -4.9870
v  5.3615 0.1270 -3.7690
v  5.8410 0.1270 0.8461
v  5.5445 0.1270 2.1641
v  5.7446 0.1270 2.4614
v  5.8929 0.1270 1.8024
v  5.0882 0.1270 2.0827
v  5.2904 0.1270 -1.6187
v  5.2162 0.1270 1.9747
v  5.5398 0.1270 -0.8644
v  5.3659 0.1270 1.9884
v  5.7299 0.1270 -0.0495
v  5.9448 0.1270 2.7588
v  2.1877 0.1270 5.4816
v  0.8981 0.1270 5.8837
v  0.7407 0.1270 6.2057
v  1.3855 0.1270 6.0046
v  0.7404 0.1270 5.4479
v  4.0470 0.1270 3.7723
v  0.8979 0.1270 5.5048
v  3.5185 0.1270 4.3654
v  0.9610 0.1270 5.6412
v  2.9079 0.1270 4.9375
v  0.5832 0.1270 6.5277
v  -3.6533 0.1270 4.6354
v  -4.6464 0.1270 3.7196
v  -5.0040 0.1270 3.7443
v  -4.5074 0.1270 4.2022
v  -4.3478 0.1270 3.3651
v  -1.2434 0.1270 5.3910
v  -4.3183 0.1270 3.5300
v  -2.0213 0.1270 5.2298
v  -4.4049 0.1270 3.6528
v  -2.8221 0.1270 4.9870
v  -5.3615 0.1270 3.7690
v  -5.0000 0.0000 -2.8867
v  -5.0000 0.0000 -2.2771
v  -5.0000 0.0000 2.2772
v  -5.0000 0.0000 2.8868
v  -5.8929 0.0000 -1.8025
v  -5.8410 0.0000 -0.8461
v  -5.5445 0.0000 -2.1641
v  -5.7446 0.0000 -2.4614
v  -5.2904 0.0000 1.6187
v  -5.0882 0.0000 -2.0827
v  -5.5398 0.0000 0.8644
v  -5.2162 0.0000 -1.9747
v  -5.7299 0.0000 0.0495
v  -5.3659 0.0000 -1.9884
v  -5.9448 0.0000 -2.7588
v  -0.0000 0.0000 -5.7735
v  -0.5279 0.0000 -5.4687
v  -4.4721 0.0000 -3.1915
v  -1.3855 0.0000 -6.0046
v  -2.1877 0.0000 -5.4816
v  -0.8981 0.0000 -5.8837
v  -0.7407 0.0000 -6.2057
v  -4.0470 0.0000 -3.7723
v  -0.7404 0.0000 -5.4479
v  -3.5185 0.0000 -4.3654
v  -0.8979 0.0000 -5.5048
v  -2.9079 0.0000 -4.9375
v  -0.9610 0.0000 -5.6412
v  -0.5832 0.0000 -6.5277
v  5.0000 0.0000 -2.8868
v  4.4721 0.0000 -3.1916
v  0.5279 0.0000 -5.4687
v  4.5074 0.0000 -4.2022
v  3.6533 0.0000 -4.6354
v  4.6464 0.0000 -3.7196
v  5.0040 0.0000 -3.7443
v  1.2434 0.0000 -5.3910
v  4.3478 0.0000 -3.3651
v  2.0213 0.0000 -5.2298
v  4.3183 0.0000 -3.5300
v  2.8221 0.0000 -4.9870
v  4.4049 0.0000 -3.6528
v  5.3615 0.0000 -3.7690
v  5.0000 0.0000 2.8867
v  5.0000 0.0000 2.2771
v  5.0000 0.0000 -2.2772
v  5.8929 0.0000 1.8024
v  5.8410 0.0000 0.8461
v  5.5445 0.0000 2.1641
v  5.7446 0.0000 2.4614
v  5.2904 0.0000 -1.6187
v  5.0882 0.0000 2.0827
v  5.5398 0.0000 -0.8644
v  5.2162 0.0000 1.9747
v  5.7299 0.0000 -0.0496
v  5.3659 0.0000 1.9884
v  5.9448 0.0000 2.7588
v  0.0000 0.0000 5.7735
v  0.5279 0.0000 5.4687
v  4.4721 0.0000 3.1915
v  1.3855 0.0000 6.0046
v  2.1877 0.0000 5.4816
v  0.8981 0.0000 5.8837
v  0.7407 0.0000 6.2057
v  4.0470 0.0000 3.7723
v  0.7404 0.0000 5.4479
v  3.5185 0.0000 4.3654
v  0.8979 0.0000 5.5048
v  2.9079 0.0000 4.9375
v  0.9610 0.0000 5.6412
v  0.5832 0.0000 6.5277
v  -4.4721 0.0000 3.1916
v  -0.5279 0.0000 5.4687
v  -4.5074 0.0000 4.2022
v  -3.6533 0.0000 4.6354
v  -4.6464 0.0000 3.7196
v  -5.0040 0.0000 3.7443
v  -1.2434 0.0000 5.3910
v  -4.3478 0.0000 3.3651
v  -2.0213 0.0000 5.2298
v  -4.3183 0.0000 3.5300
v  -2.8221 0.0000 4.9870
v  -4.4049 0.0000 3.6528
v  -5.3615 0.0000 3.7690
# 169 vertices

vn 0.0000 1.0000 0.0000
vn -0.0000 1.0000 0.0000
vn 0.0000 1.0000 -0.0000
vn -0.0000 1.0000 -0.0000
vn -1.0000 0.0000 -0.0000
vn -0.9774 0.0000 -0.2113
vn -0.9785 0.0000 0.2062
vn -1.0000 0.0000 0.0000
vn -0.9985 0.0000 0.0542
vn -0.9961 0.0000 0.0887
vn 0.7694 0.0000 -0.6388
vn 0.8295 0.0000 -0.5585
vn -0.9333 0.0000 0.3591
vn -0.7973 0.0000 -0.6036
vn -0.9626 0.0000 0.2709
vn -0.6447 0.0000 -0.7645
vn -0.9845 0.0000 0.1754
vn 0.0906 0.0000 -0.9959
vn 0.4206 0.0000 -0.9073
vn -0.5000 0.0000 -0.8660
vn -0.3057 -0.0000 -0.9521
vn -0.6678 -0.0000 -0.7443
vn -0.5000 -0.0000 -0.8660
vn -0.5462 0.0000 -0.8377
vn -0.5748 0.0000 -0.8183
vn 0.9379 -0.0000 0.3469
vn 0.8984 -0.0000 0.4392
vn -0.7777 -0.0000 -0.6287
vn 0.1241 0.0000 -0.9923
vn 0.1241 -0.0000 -0.9923
vn -0.7159 0.0000 -0.6982
vn 0.3397 0.0000 -0.9405
vn -0.6442 0.0000 -0.7649
vn 0.9077 -0.0000 -0.4195
vn 0.9960 -0.0000 -0.0894
vn 0.5000 -0.0000 -0.8660
vn 0.6717 -0.0000 -0.7408
vn 0.3107 -0.0000 -0.9505
vn 0.4524 -0.0000 -0.8918
vn 0.4212 -0.0000 -0.9070
vn 0.1685 -0.0000 0.9857
vn 0.0689 -0.0000 0.9976
vn 0.1556 -0.0000 -0.9878
vn 0.9214 0.0000 -0.3887
vn 0.2467 -0.0000 -0.9691
vn 0.9844 0.0000 -0.1760
vn 0.3403 -0.0000 -0.9403
vn 0.8172 -0.0000 0.5764
vn 0.5754 -0.0000 0.8179
vn 1.0000 -0.0000 -0.0000
vn 0.9774 -0.0000 0.2113
vn 0.9785 -0.0000 -0.2062
vn 1.0000 0.0000 0.0000
vn 0.9985 0.0000 -0.0542
vn 0.9961 0.0000 -0.0887
vn -0.7694 -0.0000 0.6388
vn -0.8295 -0.0000 0.5585
vn 0.9333 0.0000 -0.3591
vn 0.7973 -0.0000 0.6036
vn 0.9626 0.0000 -0.2709
vn 0.6447 -0.0000 0.7645
vn 0.9845 0.0000 -0.1754
vn -0.0906 -0.0000 0.9959
vn -0.4206 -0.0000 0.9073
vn 0.5000 0.0000 0.8660
vn 0.3057 -0.0000 0.9521
vn 0.6678 -0.0000 0.7443
vn 0.5000 -0.0000 0.8660
vn 0.5462 -0.0000 0.8377
vn 0.5748 -0.0000 0.8183
vn -0.9379 -0.0000 -0.3469
vn -0.8984 -0.0000 -0.4392
vn 0.7777 0.0000 0.6287
vn -0.1241 -0.0000 0.9923
vn 0.7159 0.0000 0.6982
vn -0.3397 -0.0000 0.9405
vn 0.6442 -0.0000 0.7649
vn -0.9077 -0.0000 0.4195
vn -0.9960 -0.0000 0.0894
vn -0.5000 -0.0000 0.8660
vn -0.6717 -0.0000 0.7408
vn -0.5000 0.0000 0.8660
vn -0.3107 -0.0000 0.9505
vn -0.4524 -0.0000 0.8918
vn -0.4212 -0.0000 0.9070
vn -0.1685 -0.0000 -0.9857
vn -0.0689 0.0000 -0.9976
vn -0.1556 -0.0000 0.9878
vn -0.9214 -0.0000 0.3887
vn -0.2467 -0.0000 0.9691
vn -0.9844 -0.0000 0.1760
vn -0.3403 -0.0000 0.9403
vn -0.8172 0.0000 -0.5764
vn -0.5754 0.0000 -0.8179
# 94 vertex normals

vt 0.0895 0.4604 0.0000
vt 0.2604 0.1643 0.0000
vt 0.5000 0.5000 0.0000
vt 0.3291 0.1247 0.0000
vt 0.6709 0.1247 0.0000
vt 0.7396 0.1643 0.0000
vt 0.9105 0.4604 0.0000
vt 0.9105 0.5396 0.0000
vt 0.7396 0.8357 0.0000
vt 0.6709 0.8753 0.0000
vt 0.3291 0.8753 0.0000
vt 0.2604 0.8357 0.0000
vt 0.0895 0.5396 0.0000
vt 0.0666 0.5000 0.0000
vt 0.2833 0.1247 0.0000
vt 0.7167 0.1247 0.0000
vt 0.9334 0.5000 0.0000
vt 0.7167 0.8753 0.0000
vt 0.2833 0.8753 0.0000
vt 0.5635 0.9385 0.0000
vt 0.6624 0.9162 0.0000
vt 0.6848 0.9312 0.0000
vt 0.6353 0.9423 0.0000
vt 0.6563 0.8819 0.0000
vt 0.3785 0.8971 0.0000
vt 0.6482 0.8916 0.0000
vt 0.4351 0.9158 0.0000
vt 0.6493 0.9028 0.0000
vt 0.4963 0.9301 0.0000
vt 0.7071 0.9462 0.0000
vt 0.9115 0.6642 0.0000
vt 0.9417 0.5674 0.0000
vt 0.9658 0.5556 0.0000
vt 0.9507 0.6040 0.0000
vt 0.9089 0.5556 0.0000
vt 0.7832 0.8038 0.0000
vt 0.9132 0.5674 0.0000
vt 0.8277 0.7641 0.0000
vt 0.9235 0.5721 0.0000
vt 0.8706 0.7183 0.0000
vt 0.9900 0.5438 0.0000
vt 0.8480 0.2258 0.0000
vt 0.7792 0.1512 0.0000
vt 0.7811 0.1244 0.0000
vt 0.8154 0.1617 0.0000
vt 0.7526 0.1736 0.0000
vt 0.9047 0.4067 0.0000
vt 0.7650 0.1758 0.0000
vt 0.8926 0.3483 0.0000
vt 0.7742 0.1693 0.0000
vt 0.8743 0.2882 0.0000
vt 0.7829 0.0975 0.0000
vt 0.4365 0.0615 0.0000
vt 0.3376 0.0838 0.0000
vt 0.3152 0.0688 0.0000
vt 0.3647 0.0577 0.0000
vt 0.3437 0.1181 0.0000
vt 0.6215 0.1029 0.0000
vt 0.3518 0.1084 0.0000
vt 0.5649 0.0842 0.0000
vt 0.3507 0.0972 0.0000
vt 0.5037 0.0699 0.0000
vt 0.2929 0.0538 0.0000
vt 0.0885 0.3358 0.0000
vt 0.0583 0.4326 0.0000
vt 0.0342 0.4444 0.0000
vt 0.0493 0.3960 0.0000
vt 0.0911 0.4444 0.0000
vt 0.2168 0.1962 0.0000
vt 0.0868 0.4326 0.0000
vt 0.1723 0.2359 0.0000
vt 0.0765 0.4279 0.0000
vt 0.1294 0.2817 0.0000
vt 0.0100 0.4562 0.0000
vt 0.1520 0.7742 0.0000
vt 0.2208 0.8488 0.0000
vt 0.2189 0.8756 0.0000
vt 0.1846 0.8383 0.0000
vt 0.2474 0.8264 0.0000
vt 0.0953 0.5933 0.0000
vt 0.2350 0.8242 0.0000
vt 0.1074 0.6517 0.0000
vt 0.2258 0.8307 0.0000
vt 0.1257 0.7118 0.0000
vt 0.2171 0.9025 0.0000
vt 0.2041 0.0265 0.0000
vt 0.2498 0.0265 0.0000
vt 0.2498 0.0360 0.0000
vt 0.2041 0.0360 0.0000
vt 0.7502 0.0265 0.0000
vt 0.7959 0.0265 0.0000
vt 0.7959 0.0360 0.0000
vt 0.7502 0.0360 0.0000
vt 0.4342 0.0265 0.0000
vt 0.5061 0.0265 0.0000
vt 0.5061 0.0360 0.0000
vt 0.4342 0.0360 0.0000
vt 0.3085 0.0265 0.0000
vt 0.3354 0.0265 0.0000
vt 0.3354 0.0360 0.0000
vt 0.3085 0.0360 0.0000
vt 0.6961 0.0265 0.0000
vt 0.6961 0.0360 0.0000
vt 0.2659 0.0265 0.0000
vt 0.2659 0.0360 0.0000
vt 0.6365 0.0265 0.0000
vt 0.6365 0.0360 0.0000
vt 0.2784 0.0265 0.0000
vt 0.2784 0.0360 0.0000
vt 0.5737 0.0265 0.0000
vt 0.5737 0.0360 0.0000
vt 0.2897 0.0265 0.0000
vt 0.2897 0.0360 0.0000
vt 0.3623 0.0265 0.0000
vt 0.3623 0.0360 0.0000
# 115 texture coords

o Standalone_Reverse
g Standalone_Reverse
s 4
f 1/1/1 2/2/2 3/3/3 
f 4/4/3 5/5/1 3/3/3 
f 6/6/4 7/7/3 3/3/3 
f 8/8/4 9/9/3 3/3/3 
f 10/10/2 11/11/4 3/3/3 
f 3/3/3 12/12/1 13/13/2 
f 3/3/3 14/14/3 1/1/1 
f 2/2/2 15/15/3 3/3/3 
f 3/3/3 15/15/3 4/4/3 
f 5/5/1 16/16/4 3/3/3 
f 3/3/3 16/16/4 6/6/4 
f 7/7/3 17/17/2 3/3/3 
f 3/3/3 17/17/2 8/8/4 
f 9/9/3 18/18/2 3/3/3 
f 3/3/3 18/18/2 10/10/2 
f 11/11/4 19/19/4 3/3/3 
f 3/3/3 19/19/4 12/12/1 
f 13/13/2 14/14/3 3/3/3 
s 1
f 20/20/3 21/21/3 22/22/4 
f 22/22/4 23/23/4 20/20/3 
f 10/10/4 24/24/4 25/25/4 
f 25/25/4 11/11/2 10/10/4 
f 24/24/4 26/26/4 27/27/4 
f 27/27/4 25/25/4 24/24/4 
f 26/26/4 28/28/1 29/29/1 
f 29/29/1 27/27/4 26/26/4 
f 28/28/1 21/21/3 20/20/3 
f 20/20/3 29/29/1 28/28/1 
f 22/22/4 30/30/4 23/23/4 
f 31/31/1 32/32/1 33/33/4 
f 33/33/4 34/34/4 31/31/1 
f 8/8/4 35/35/4 36/36/4 
f 36/36/4 9/9/4 8/8/4 
f 35/35/4 37/37/4 38/38/4 
f 38/38/4 36/36/4 35/35/4 
f 37/37/4 39/39/1 40/40/1 
f 40/40/1 38/38/4 37/37/4 
f 39/39/1 32/32/1 31/31/1 
f 31/31/1 40/40/1 39/39/1 
f 33/33/4 41/41/4 34/34/4 
f 42/42/2 43/43/3 44/44/3 
f 44/44/3 45/45/3 42/42/2 
f 6/6/3 46/46/3 47/47/3 
f 47/47/3 7/7/3 6/6/3 
f 46/46/3 48/48/3 49/49/3 
f 49/49/3 47/47/3 46/46/3 
f 48/48/3 50/50/2 51/51/2 
f 51/51/2 49/49/3 48/48/3 
f 50/50/2 43/43/3 42/42/2 
f 42/42/2 51/51/2 50/50/2 
f 44/44/3 52/52/3 45/45/3 
f 53/53/3 54/54/3 55/55/1 
f 55/55/1 56/56/1 53/53/3 
f 4/4/1 57/57/1 58/58/1 
f 58/58/1 5/5/3 4/4/1 
f 57/57/1 59/59/1 60/60/1 
f 60/60/1 58/58/1 57/57/1 
f 59/59/1 61/61/4 62/62/4 
f 62/62/4 60/60/1 59/59/1 
f 61/61/4 54/54/3 53/53/3 
f 53/53/3 62/62/4 61/61/4 
f 55/55/1 63/63/1 56/56/1 
f 64/64/3 65/65/3 66/66/1 
f 66/66/1 67/67/1 64/64/3 
f 1/1/1 68/68/1 69/69/1 
f 69/69/1 2/2/1 1/1/1 
f 68/68/1 70/70/1 71/71/1 
f 71/71/1 69/69/1 68/68/1 
f 70/70/1 72/72/4 73/73/4 
f 73/73/4 71/71/1 70/70/1 
f 72/72/4 65/65/3 64/64/3 
f 64/64/3 73/73/4 72/72/4 
f 66/66/1 74/74/1 67/67/1 
f 75/75/3 76/76/3 77/77/2 
f 77/77/2 78/78/2 75/75/3 
f 12/12/2 79/79/2 80/80/2 
f 80/80/2 13/13/2 12/12/2 
f 79/79/2 81/81/4 82/82/2 
f 82/82/2 80/80/2 79/79/2 
f 81/81/4 83/83/3 84/84/3 
f 84/84/3 82/82/2 81/81/4 
f 83/83/3 76/76/3 75/75/3 
f 75/75/3 84/84/3 83/83/3 
f 77/77/2 85/85/2 78/78/2 
s 8
f 86/86/5 87/87/6 10/88/6 
f 10/88/6 18/89/5 86/86/5 
s 2
f 88/90/7 89/91/8 19/92/8 
f 19/92/8 11/93/7 88/90/7 
f 90/94/9 91/95/10 20/96/10 
f 20/96/10 23/97/9 90/94/9 
s 4
f 92/98/11 93/99/12 22/100/12 
f 22/100/12 21/101/11 92/98/11 
s 2
f 94/102/13 88/90/7 11/93/7 
f 11/93/7 25/103/13 94/102/13 
s 8
f 87/87/6 95/104/14 24/105/14 
f 24/105/14 10/88/6 87/87/6 
s 2
f 96/106/15 94/102/13 25/103/13 
f 25/103/13 27/107/15 96/106/15 
s 8
f 95/104/14 97/108/16 26/109/16 
f 26/109/16 24/105/14 95/104/14 
s 2
f 98/110/17 96/106/15 27/107/15 
f 27/107/15 29/111/17 98/110/17 
s 4
f 97/108/18 99/112/19 28/113/19 
f 28/113/19 26/109/18 97/108/18 
s 2
f 91/95/10 98/110/17 29/111/17 
f 29/111/17 20/96/10 91/95/10 
s 4
f 99/112/19 92/98/11 21/101/11 
f 21/101/11 28/113/19 99/112/19 
f 93/99/12 100/114/12 30/115/12 
f 30/115/12 22/100/12 93/99/12 
s 2
f 100/114/9 90/94/9 23/97/9 
f 23/97/9 30/115/9 100/114/9 
s 8
f 101/86/20 102/87/21 8/88/21 
f 8/88/21 17/89/20 101/86/20 
s 2
f 103/90/22 86/91/20 18/92/23 
f 18/92/23 9/93/22 103/90/22 
f 104/94/24 105/95/25 31/96/25 
f 31/96/25 34/97/24 104/94/24 
s 4
f 106/98/26 107/99/27 33/100/27 
f 33/100/27 32/101/26 106/98/26 
s 2
f 108/102/28 103/90/22 9/93/22 
f 9/93/22 36/103/28 108/102/28 
s 8
f 102/87/21 109/104/29 35/105/30 
f 35/105/30 8/88/21 102/87/21 
s 2
f 110/106/31 108/102/28 36/103/28 
f 36/103/28 38/107/31 110/106/31 
s 8
f 109/104/29 111/108/32 37/109/32 
f 37/109/32 35/105/30 109/104/29 
s 2
f 112/110/33 110/106/31 38/107/31 
f 38/107/31 40/111/33 112/110/33 
s 4
f 111/108/34 113/112/35 39/113/35 
f 39/113/35 37/109/34 111/108/34 
s 2
f 105/95/25 112/110/33 40/111/33 
f 40/111/33 31/96/25 105/95/25 
s 4
f 113/112/35 106/98/26 32/101/26 
f 32/101/26 39/113/35 113/112/35 
f 107/99/27 114/114/27 41/115/27 
f 41/115/27 33/100/27 107/99/27 
s 2
f 114/114/24 104/94/24 34/97/24 
f 34/97/24 41/115/24 114/114/24 
s 8
f 115/86/36 116/87/37 6/88/37 
f 6/88/37 16/89/36 115/86/36 
s 2
f 117/90/38 101/91/36 17/92/36 
f 17/92/36 7/93/38 117/90/38 
f 118/94/39 119/95/40 42/96/40 
f 42/96/40 45/97/39 118/94/39 
s 4
f 120/98/41 121/99/42 44/100/42 
f 44/100/42 43/101/41 120/98/41 
s 2
f 122/102/43 117/90/38 7/93/38 
f 7/93/38 47/103/43 122/102/43 
s 8
f 116/87/37 123/104/44 46/105/44 
f 46/105/44 6/88/37 116/87/37 
s 2
f 124/106/45 122/102/43 47/103/43 
f 47/103/43 49/107/45 124/106/45 
s 8
f 123/104/44 125/108/46 48/109/46 
f 48/109/46 46/105/44 123/104/44 
s 2
f 126/110/47 124/106/45 49/107/45 
f 49/107/45 51/111/47 126/110/47 
s 4
f 125/108/48 127/112/49 50/113/49 
f 50/113/49 48/109/48 125/108/48 
s 2
f 119/95/40 126/110/47 51/111/47 
f 51/111/47 42/96/40 119/95/40 
s 4
f 127/112/49 120/98/41 43/101/41 
f 43/101/41 50/113/49 127/112/49 
f 121/99/42 128/114/42 52/115/42 
f 52/115/42 44/100/42 121/99/42 
s 2
f 128/114/39 118/94/39 45/97/39 
f 45/97/39 52/115/39 128/114/39 
s 8
f 129/86/50 130/87/51 4/88/51 
f 4/88/51 15/89/50 129/86/50 
s 2
f 131/90/52 115/91/53 16/92/53 
f 16/92/53 5/93/52 131/90/52 
f 132/94/54 133/95/55 53/96/55 
f 53/96/55 56/97/54 132/94/54 
s 4
f 134/98/56 135/99/57 55/100/57 
f 55/100/57 54/101/56 134/98/56 
s 2
f 136/102/58 131/90/52 5/93/52 
f 5/93/52 58/103/58 136/102/58 
s 8
f 130/87/51 137/104/59 57/105/59 
f 57/105/59 4/88/51 130/87/51 
s 2
f 138/106/60 136/102/58 58/103/58 
f 58/103/58 60/107/60 138/106/60 
s 8
f 137/104/59 139/108/61 59/109/61 
f 59/109/61 57/105/59 137/104/59 
s 2
f 140/110/62 138/106/60 60/107/60 
f 60/107/60 62/111/62 140/110/62 
s 4
f 139/108/63 141/112/64 61/113/64 
f 61/113/64 59/109/63 139/108/63 
s 2
f 133/95/55 140/110/62 62/111/62 
f 62/111/62 53/96/55 133/95/55 
s 4
f 141/112/64 134/98/56 54/101/56 
f 54/101/56 61/113/64 141/112/64 
f 135/99/57 142/114/57 63/115/57 
f 63/115/57 55/100/57 135/99/57 
s 2
f 142/114/54 132/94/54 56/97/54 
f 56/97/54 63/115/54 142/114/54 
s 8
f 143/86/65 144/87/66 1/88/66 
f 1/88/66 14/89/65 143/86/65 
s 2
f 145/90/67 129/91/68 15/92/68 
f 15/92/68 2/93/67 145/90/67 
f 146/94/69 147/95/70 64/96/70 
f 64/96/70 67/97/69 146/94/69 
s 4
f 148/98/71 149/99/72 66/100/72 
f 66/100/72 65/101/71 148/98/71 
s 2
f 150/102/73 145/90/67 2/93/67 
f 2/93/67 69/103/73 150/102/73 
s 8
f 144/87/66 151/104/74 68/105/74 
f 68/105/74 1/88/66 144/87/66 
s 2
f 152/106/75 150/102/73 69/103/73 
f 69/103/73 71/107/75 152/106/75 
s 8
f 151/104/74 153/108/76 70/109/76 
f 70/109/76 68/105/74 151/104/74 
s 2
f 154/110/77 152/106/75 71/107/75 
f 71/107/75 73/111/77 154/110/77 
s 4
f 153/108/78 155/112/79 72/113/79 
f 72/113/79 70/109/78 153/108/78 
s 2
f 147/95/70 154/110/77 73/111/77 
f 73/111/77 64/96/70 147/95/70 
s 4
f 155/112/79 148/98/71 65/101/71 
f 65/101/71 72/113/79 155/112/79 
f 149/99/72 156/114/72 74/115/72 
f 74/115/72 66/100/72 149/99/72 
s 2
f 156/114/69 146/94/69 67/97/69 
f 67/97/69 74/115/69 156/114/69 
s 8
f 89/86/80 157/87/81 12/88/81 
f 12/88/81 19/89/82 89/86/80 
s 2
f 158/90/83 143/91/80 14/92/80 
f 14/92/80 13/93/83 158/90/83 
f 159/94/84 160/95/85 75/96/85 
f 75/96/85 78/97/84 159/94/84 
s 4
f 161/98/86 162/99/87 77/100/87 
f 77/100/87 76/101/86 161/98/86 
s 2
f 163/102/88 158/90/83 13/93/83 
f 13/93/83 80/103/88 163/102/88 
s 8
f 157/87/81 164/104/89 79/105/89 
f 79/105/89 12/88/81 157/87/81 
s 2
f 165/106/90 163/102/88 80/103/88 
f 80/103/88 82/107/90 165/106/90 
s 8
f 164/104/89 166/108/91 81/109/91 
f 81/109/91 79/105/89 164/104/89 
s 2
f 167/110/92 165/106/90 82/107/90 
f 82/107/90 84/111/92 167/110/92 
s 4
f 166/108/93 168/112/94 83/113/94 
f 83/113/94 81/109/93 166/108/93 
s 2
f 160/95/85 167/110/92 84/111/92 
f 84/111/92 75/96/85 160/95/85 
s 4
f 168/112/94 161/98/86 76/101/86 
f 76/101/86 83/113/94 168/112/94 
f 162/99/87 169/114/87 85/115/87 
f 85/115/87 77/100/87 162/99/87 
s 2
f 169/114/84 159/94/84 78/97/84 
f 78/97/84 85/115/84 169/114/84 
# 252 faces

