# 3ds Max Wavefront OBJ Exporter v0.97b - (c)2007 guruware
# File Created: 09.03.2022 16:37:01

#
# object Rectangle002
#

v  104.5550 0.0000 100.0000
v  104.5550 0.0000 -100.0000
v  -104.5550 0.0000 -100.0000
v  -104.5550 0.0000 100.0000
v  -156.9521 0.0000 -103.3829
v  -81.9005 0.0000 -103.3829
v  -81.9005 0.0000 -203.3829
v  -156.9521 0.0000 -203.3829
v  -156.9521 0.0000 203.3829
v  -81.9005 0.0000 203.3829
v  -81.9005 0.0000 103.3829
v  -156.9521 0.0000 103.3829
v  -77.3346 0.0000 203.3829
v  -2.2830 0.0000 203.3829
v  -2.2830 0.0000 103.3829
v  -77.3346 0.0000 103.3829
v  -77.3346 0.0000 -103.3829
v  -2.2830 0.0000 -103.3829
v  -2.2830 0.0000 -203.3829
v  -77.3346 0.0000 -203.3829
v  2.2829 0.0000 -103.3829
v  77.3346 0.0000 -103.3829
v  77.3346 0.0000 -203.3829
v  2.2829 0.0000 -203.3829
v  2.2830 0.0000 203.3829
v  77.3346 0.0000 203.3829
v  77.3346 0.0000 103.3829
v  2.2830 0.0000 103.3829
v  156.9521 0.0000 103.3829
v  81.9005 0.0000 103.3829
v  81.9005 0.0000 203.3829
v  156.9521 0.0000 203.3829
v  156.9521 0.0000 -203.3829
v  81.9005 0.0000 -203.3829
v  81.9005 0.0000 -103.3829
v  156.9521 0.0000 -103.3829
v  -106.7104 0.0000 100.0000
v  -106.7104 0.0000 -100.0000
v  -156.7104 0.0000 -100.0000
v  -156.7104 0.0000 100.0000
v  156.4568 0.0000 100.0000
v  156.4568 0.0000 -100.0000
v  106.4568 0.0000 -100.0000
v  106.4568 0.0000 100.0000
v  -104.5550 -5.0000 -100.0000
v  104.5550 -5.0000 -100.0000
v  104.5550 -5.0000 100.0000
v  -104.5550 -5.0000 100.0000
v  -81.9005 -5.0000 -203.3829
v  -81.9005 -5.0000 -103.3829
v  -156.9521 -5.0000 -103.3829
v  -156.9521 -5.0000 -203.3829
v  -81.9005 -5.0000 103.3829
v  -81.9005 -5.0000 203.3829
v  -156.9521 -5.0000 203.3829
v  -156.9521 -5.0000 103.3829
v  -2.2830 -5.0000 103.3829
v  -2.2830 -5.0000 203.3829
v  -77.3346 -5.0000 203.3829
v  -77.3346 -5.0000 103.3829
v  -2.2830 -5.0000 -203.3829
v  -2.2830 -5.0000 -103.3829
v  -77.3346 -5.0000 -103.3829
v  -77.3346 -5.0000 -203.3829
v  77.3346 -5.0000 -203.3829
v  77.3346 -5.0000 -103.3829
v  2.2829 -5.0000 -103.3829
v  2.2829 -5.0000 -203.3829
v  77.3346 -5.0000 103.3829
v  77.3346 -5.0000 203.3829
v  2.2830 -5.0000 203.3829
v  2.2830 -5.0000 103.3829
v  81.9005 -5.0000 203.3829
v  81.9005 -5.0000 103.3829
v  156.9521 -5.0000 103.3829
v  156.9521 -5.0000 203.3829
v  81.9005 -5.0000 -103.3829
v  81.9005 -5.0000 -203.3829
v  156.9521 -5.0000 -203.3829
v  156.9521 -5.0000 -103.3829
v  -156.7104 -5.0000 -100.0000
v  -106.7104 -5.0000 -100.0000
v  -106.7104 -5.0000 100.0000
v  -156.7104 -5.0000 100.0000
v  106.4568 -5.0000 -100.0000
v  156.4568 -5.0000 -100.0000
v  156.4568 -5.0000 100.0000
v  106.4568 -5.0000 100.0000
# 88 vertices

vn 0.0000 1.0000 -0.0000
vn 0.0000 -1.0000 -0.0000
vn 1.0000 0.0000 -0.0000
vn -0.0000 0.0000 -1.0000
vn 0.0000 0.0000 1.0000
vn -1.0000 0.0000 0.0000
# 6 vertex normals

o Rectangle002
g Rectangle002
s 1
f 1//1 2//1 3//1 
f 4//1 1//1 3//1 
f 5//1 6//1 7//1 
f 8//1 5//1 7//1 
f 9//1 10//1 11//1 
f 12//1 9//1 11//1 
f 13//1 14//1 15//1 
f 16//1 13//1 15//1 
f 17//1 18//1 19//1 
f 20//1 17//1 19//1 
f 21//1 22//1 23//1 
f 24//1 21//1 23//1 
f 25//1 26//1 27//1 
f 28//1 25//1 27//1 
f 29//1 30//1 31//1 
f 32//1 29//1 31//1 
f 33//1 34//1 35//1 
f 36//1 33//1 35//1 
f 37//1 38//1 39//1 
f 37//1 39//1 40//1 
f 41//1 42//1 43//1 
f 41//1 43//1 44//1 
f 45//2 46//2 47//2 
f 45//2 47//2 48//2 
f 49//2 50//2 51//2 
f 49//2 51//2 52//2 
f 53//2 54//2 55//2 
f 53//2 55//2 56//2 
f 57//2 58//2 59//2 
f 57//2 59//2 60//2 
f 61//2 62//2 63//2 
f 61//2 63//2 64//2 
f 65//2 66//2 67//2 
f 65//2 67//2 68//2 
f 69//2 70//2 71//2 
f 69//2 71//2 72//2 
f 73//2 74//2 75//2 
f 73//2 75//2 76//2 
f 77//2 78//2 79//2 
f 77//2 79//2 80//2 
f 81//2 82//2 83//2 
f 84//2 81//2 83//2 
f 85//2 86//2 87//2 
f 88//2 85//2 87//2 
s 2
f 2//3 1//3 47//3 
f 47//3 46//3 2//3 
s 4
f 3//4 2//4 46//4 
f 46//4 45//4 3//4 
f 1//5 4//5 48//5 
f 48//5 47//5 1//5 
s 2
f 4//6 3//6 45//6 
f 45//6 48//6 4//6 
f 6//5 5//5 51//5 
f 51//5 50//5 6//5 
s 4
f 7//3 6//3 50//3 
f 50//3 49//3 7//3 
f 5//6 8//6 52//6 
f 52//6 51//6 5//6 
s 2
f 8//4 7//4 49//4 
f 49//4 52//4 8//4 
f 10//5 9//5 55//5 
f 55//5 54//5 10//5 
s 4
f 11//3 10//3 54//3 
f 54//3 53//3 11//3 
f 9//6 12//6 56//6 
f 56//6 55//6 9//6 
s 2
f 12//4 11//4 53//4 
f 53//4 56//4 12//4 
f 14//5 13//5 59//5 
f 59//5 58//5 14//5 
s 4
f 15//3 14//3 58//3 
f 58//3 57//3 15//3 
f 13//6 16//6 60//6 
f 60//6 59//6 13//6 
s 2
f 16//4 15//4 57//4 
f 57//4 60//4 16//4 
f 18//5 17//5 63//5 
f 63//5 62//5 18//5 
s 4
f 19//3 18//3 62//3 
f 62//3 61//3 19//3 
f 17//6 20//6 64//6 
f 64//6 63//6 17//6 
s 2
f 20//4 19//4 61//4 
f 61//4 64//4 20//4 
f 22//5 21//5 67//5 
f 67//5 66//5 22//5 
s 4
f 23//3 22//3 66//3 
f 66//3 65//3 23//3 
f 21//6 24//6 68//6 
f 68//6 67//6 21//6 
s 2
f 24//4 23//4 65//4 
f 65//4 68//4 24//4 
f 26//5 25//5 71//5 
f 71//5 70//5 26//5 
s 4
f 27//3 26//3 70//3 
f 70//3 69//3 27//3 
f 25//6 28//6 72//6 
f 72//6 71//6 25//6 
s 2
f 28//4 27//4 69//4 
f 69//4 72//4 28//4 
f 30//4 29//4 75//4 
f 75//4 74//4 30//4 
s 4
f 31//6 30//6 74//6 
f 74//6 73//6 31//6 
f 29//3 32//3 76//3 
f 76//3 75//3 29//3 
s 2
f 32//5 31//5 73//5 
f 73//5 76//5 32//5 
f 34//4 33//4 79//4 
f 79//4 78//4 34//4 
s 4
f 35//6 34//6 78//6 
f 78//6 77//6 35//6 
f 33//3 36//3 80//3 
f 80//3 79//3 33//3 
s 2
f 36//5 35//5 77//5 
f 77//5 80//5 36//5 
f 38//3 37//3 83//3 
f 83//3 82//3 38//3 
s 4
f 39//4 38//4 82//4 
f 82//4 81//4 39//4 
s 2
f 40//6 39//6 81//6 
f 81//6 84//6 40//6 
s 4
f 37//5 40//5 84//5 
f 84//5 83//5 37//5 
s 2
f 42//3 41//3 87//3 
f 87//3 86//3 42//3 
s 4
f 43//4 42//4 86//4 
f 86//4 85//4 43//4 
s 2
f 44//6 43//6 85//6 
f 85//6 88//6 44//6 
s 4
f 41//5 44//5 88//5 
f 88//5 87//5 41//5 
# 132 faces

