# 3ds Max Wavefront OBJ Exporter v0.97b - (c)2007 guruware
# File Created: 12.03.2022 10:48:43

#
# object Arc011
#

v  173.2582 20.0000 -50.6142
v  172.1077 20.0000 -54.3441
v  107.8607 20.0000 -33.4689
v  107.8608 20.0000 33.4689
v  172.1077 20.0000 54.3440
v  173.2582 20.0000 50.6141
v  174.6948 20.0000 45.4084
v  175.9746 20.0000 40.1637
v  178.8659 20.0000 -24.2322
v  178.0609 20.0000 -29.5722
v  177.0969 20.0000 -34.8839
v  179.5110 20.0000 -18.8674
v  179.9954 20.0000 -13.4858
v  180.3182 20.0000 -8.0951
v  180.4796 20.0000 -2.6990
v  180.4797 20.0000 2.6989
v  180.3183 20.0000 8.0950
v  179.9954 20.0000 13.4856
v  179.5110 20.0000 18.8673
v  178.8659 20.0000 24.2320
v  178.0609 20.0000 29.5720
v  177.0969 20.0000 34.8838
v  175.9746 20.0000 -40.1639
v  174.6948 20.0000 -45.4085
v  107.8607 17.0000 -33.4689
v  172.1077 17.0000 -54.3441
v  173.2582 17.0000 -50.6142
v  173.2582 17.0000 50.6141
v  172.1077 17.0000 54.3440
v  107.8608 17.0000 33.4689
v  174.6948 17.0000 45.4084
v  175.9746 17.0000 40.1637
v  177.0969 17.0000 -34.8839
v  178.0609 17.0000 -29.5722
v  178.8659 17.0000 -24.2322
v  179.5110 17.0000 -18.8674
v  179.9954 17.0000 -13.4858
v  180.3182 17.0000 -8.0951
v  180.4796 17.0000 -2.6990
v  180.4797 17.0000 2.6989
v  180.3183 17.0000 8.0950
v  179.9954 17.0000 13.4856
v  179.5110 17.0000 18.8673
v  178.8659 17.0000 24.2320
v  178.0609 17.0000 29.5720
v  177.0969 17.0000 34.8838
v  175.9746 17.0000 -40.1639
v  174.6948 17.0000 -45.4085
# 48 vertices

vn 0.0000 1.0000 -0.0000
vn 0.0000 -1.0000 -0.0000
vn 0.0000 -1.0000 0.0000
vn -0.0000 -1.0000 -0.0000
vn -0.0000 -1.0000 0.0000
vn 0.9556 0.0000 -0.2948
vn 0.9599 0.0000 -0.2804
vn -0.3090 0.0000 -0.9511
vn -0.3090 0.0000 0.9511
vn 0.9599 0.0000 0.2804
vn 0.9556 0.0000 0.2948
vn 0.9678 0.0000 0.2516
vn 0.9749 0.0000 0.2225
vn 0.9865 0.0000 -0.1638
vn 0.9909 0.0000 -0.1342
vn 0.9811 0.0000 -0.1933
vn 0.9945 0.0000 -0.1045
vn 0.9972 0.0000 -0.0747
vn 0.9990 0.0000 -0.0448
vn 0.9999 0.0000 -0.0150
vn 0.9999 0.0000 0.0149
vn 0.9990 0.0000 0.0448
vn 0.9972 0.0000 0.0747
vn 0.9945 0.0000 0.1045
vn 0.9909 0.0000 0.1342
vn 0.9865 0.0000 0.1638
vn 0.9811 0.0000 0.1933
vn 0.9749 0.0000 -0.2225
vn -1.0000 0.0000 0.0000
vn 0.9678 0.0000 -0.2516
# 30 vertex normals

o Arc011
g Arc011
s 1
f 1//1 2//1 3//1 
f 4//1 5//1 6//1 
f 4//1 6//1 7//1 
f 4//1 7//1 8//1 
f 9//1 10//1 11//1 
f 12//1 9//1 11//1 
f 13//1 12//1 11//1 
f 14//1 13//1 11//1 
f 15//1 14//1 11//1 
f 16//1 15//1 11//1 
f 17//1 16//1 11//1 
f 18//1 17//1 11//1 
f 19//1 18//1 11//1 
f 20//1 19//1 11//1 
f 21//1 20//1 11//1 
f 22//1 21//1 11//1 
f 8//1 22//1 11//1 
f 8//1 11//1 23//1 
f 4//1 8//1 23//1 
f 3//1 4//1 23//1 
f 3//1 23//1 24//1 
f 1//1 3//1 24//1 
f 25//2 26//2 27//3 
f 28//2 29//2 30//2 
f 31//2 28//2 30//2 
f 32//4 31//2 30//2 
f 33//5 34//2 35//2 
f 33//5 35//2 36//5 
f 33//5 36//5 37//2 
f 33//5 37//2 38//5 
f 33//5 38//5 39//2 
f 33//5 39//2 40//2 
f 33//5 40//2 41//5 
f 33//5 41//5 42//2 
f 33//5 42//2 43//2 
f 33//5 43//2 44//2 
f 33//5 44//2 45//2 
f 33//5 45//2 46//5 
f 33//5 46//5 32//4 
f 47//4 33//5 32//4 
f 47//4 32//4 30//2 
f 47//4 30//2 25//2 
f 48//2 47//4 25//2 
f 48//2 25//2 27//3 
s 2
f 2//6 1//7 27//7 
f 27//7 26//6 2//6 
s 4
f 3//8 2//8 26//8 
f 26//8 25//8 3//8 
f 5//9 4//9 30//9 
f 30//9 29//9 5//9 
s 2
f 6//10 5//11 29//11 
f 29//11 28//10 6//10 
f 7//12 6//10 28//10 
f 28//10 31//12 7//12 
f 8//13 7//12 31//12 
f 31//12 32//13 8//13 
f 10//14 9//15 35//15 
f 35//15 34//14 10//14 
f 11//16 10//14 34//14 
f 34//14 33//16 11//16 
f 9//15 12//17 36//17 
f 36//17 35//15 9//15 
f 12//17 13//18 37//18 
f 37//18 36//17 12//17 
f 13//18 14//19 38//19 
f 38//19 37//18 13//18 
f 14//19 15//20 39//20 
f 39//20 38//19 14//19 
f 15//20 16//21 40//21 
f 40//21 39//20 15//20 
f 16//21 17//22 41//22 
f 41//22 40//21 16//21 
f 17//22 18//23 42//23 
f 42//23 41//22 17//22 
f 18//23 19//24 43//24 
f 43//24 42//23 18//23 
f 19//24 20//25 44//25 
f 44//25 43//24 19//24 
f 20//25 21//26 45//26 
f 45//26 44//25 20//25 
f 21//26 22//27 46//27 
f 46//27 45//26 21//26 
f 22//27 8//13 32//13 
f 32//13 46//27 22//27 
f 23//28 11//16 33//16 
f 33//16 47//28 23//28 
f 4//29 3//29 25//29 
f 25//29 30//29 4//29 
f 24//30 23//28 47//28 
f 47//28 48//30 24//30 
f 1//7 24//30 48//30 
f 48//30 27//7 1//7 
# 92 faces

