# 3ds Max Wavefront OBJ Exporter v0.97b - (c)2007 guruware
# File Created: 16.01.2022 00:47:54

#
# object PlayerCommand
#

v  0.6874 0.1270 -0.3969
v  0.6874 0.0000 -0.3969
v  0.1588 0.0000 -1.3125
v  0.1588 0.1270 -1.3125
v  -0.1587 0.0000 -1.3125
v  -0.1587 0.1270 -1.3125
v  -0.6874 0.1270 -0.3969
v  -0.6874 0.0000 -0.3969
v  -1.2161 0.0000 0.5188
v  -1.2161 0.1270 0.5188
v  -1.0573 0.0000 0.7937
v  -1.0573 0.1270 0.7937
v  -0.0000 0.1270 0.7937
v  -0.0000 0.0000 0.7937
v  1.0573 0.0000 0.7937
v  1.0573 0.1270 0.7937
v  1.2161 0.0000 0.5188
v  1.2161 0.1270 0.5188
v  -0.0000 0.1270 -0.0000
v  -0.1587 -0.1270 -1.3125
v  0.1588 -0.1270 -1.3125
v  -0.0000 -0.1270 -0.0000
v  0.6874 -0.1270 -0.3969
v  1.2161 -0.1270 0.5188
v  1.0573 -0.1270 0.7937
v  -0.0000 -0.1270 0.7937
v  -1.0573 -0.1270 0.7937
v  -1.2161 -0.1270 0.5188
v  -0.6874 -0.1270 -0.3969
# 29 vertices

vn 0.8660 -0.0000 -0.5000
vn 0.8660 0.0000 -0.5000
vn -0.0000 0.0000 -1.0000
vn -0.8660 0.0000 -0.5000
vn -0.8660 0.0000 0.5000
vn 0.0000 0.0000 1.0000
vn 0.8660 0.0000 0.5000
vn 0.0000 1.0000 -0.0000
vn 0.0000 -1.0000 -0.0000
vn -0.8660 -0.0000 -0.5000
# 10 vertex normals

vt 0.4088 0.0408 0.0000
vt 0.4088 0.0217 0.0000
vt 0.4881 0.0217 0.0000
vt 0.4881 0.0408 0.0000
vt 0.5119 0.0217 0.0000
vt 0.5119 0.0408 0.0000
vt 0.5912 0.0408 0.0000
vt 0.5912 0.0217 0.0000
vt 0.6705 0.0217 0.0000
vt 0.6705 0.0408 0.0000
vt 0.6943 0.0217 0.0000
vt 0.6943 0.0408 0.0000
vt 0.2264 0.0408 0.0000
vt 0.2264 0.0217 0.0000
vt 0.3057 0.0217 0.0000
vt 0.3057 0.0408 0.0000
vt 0.3295 0.0217 0.0000
vt 0.3295 0.0408 0.0000
vt 0.6107 0.1240 0.0000
vt 0.4827 0.3456 0.0000
vt 0.3164 0.2496 0.0000
vt 0.3548 0.5672 0.0000
vt 0.2780 0.5672 0.0000
vt 0.1501 0.3456 0.0000
vt 0.0221 0.1240 0.0000
vt 0.0606 0.0575 0.0000
vt 0.3164 0.0575 0.0000
vt 0.5723 0.0575 0.0000
vt 0.6510 0.1210 0.0000
vt 0.7278 0.1210 0.0000
vt 0.6894 0.4386 0.0000
vt 0.8557 0.3426 0.0000
vt 0.9837 0.5642 0.0000
vt 0.9453 0.6307 0.0000
vt 0.6894 0.6307 0.0000
vt 0.4336 0.6307 0.0000
vt 0.3951 0.5642 0.0000
vt 0.5231 0.3426 0.0000
vt 0.7736 0.0408 0.0000
vt 0.7736 0.0217 0.0000
# 40 texture coords

o PlayerCommand
g PlayerCommand
s 1
f 1/1/1 2/2/1 3/3/1 
f 3/3/1 4/4/2 1/1/1 
s 2
f 4/4/3 3/3/3 5/5/3 
f 5/5/3 6/6/3 4/4/3 
s 1
f 7/7/4 8/8/4 9/9/4 
f 9/9/4 10/10/4 7/7/4 
s 2
f 10/10/5 9/9/5 11/11/5 
f 11/11/5 12/12/5 10/10/5 
s 1
f 13/13/6 14/14/6 15/15/6 
f 15/15/6 16/16/6 13/13/6 
s 2
f 16/16/7 15/15/7 17/17/7 
f 17/17/7 18/18/7 16/16/7 
s 4
f 18/19/8 1/20/8 19/21/8 
f 4/22/8 6/23/8 19/21/8 
f 6/23/8 7/24/8 19/21/8 
f 10/25/8 12/26/8 19/21/8 
f 12/26/8 13/27/8 19/21/8 
f 16/28/8 18/19/8 19/21/8 
f 20/29/9 21/30/9 22/31/9 
f 21/30/9 23/32/9 22/31/9 
f 24/33/9 25/34/9 22/31/9 
f 25/34/9 26/35/9 22/31/9 
f 27/36/9 28/37/9 22/31/9 
f 28/37/9 29/38/9 22/31/9 
s 1
f 24/18/2 23/1/2 2/2/1 
f 2/2/1 17/17/2 24/18/2 
s 2
f 21/4/3 20/6/3 5/5/3 
f 5/5/3 3/3/3 21/4/3 
s 1
f 20/6/10 29/7/10 8/8/4 
f 8/8/4 5/5/4 20/6/10 
s 2
f 28/10/5 27/12/5 11/11/5 
f 11/11/5 9/9/5 28/10/5 
s 1
f 27/12/6 26/39/6 14/40/6 
f 14/40/6 11/11/6 27/12/6 
s 2
f 25/16/7 24/18/7 17/17/7 
f 17/17/7 15/15/7 25/16/7 
s 1
f 12/12/6 11/11/6 14/40/6 
f 14/40/6 13/39/6 12/12/6 
f 25/16/6 15/15/6 14/14/6 
f 14/14/6 26/13/6 25/16/6 
f 6/6/4 5/5/4 8/8/4 
f 8/8/4 7/7/4 6/6/4 
f 28/10/10 9/9/4 8/8/4 
f 8/8/4 29/7/10 28/10/10 
f 18/18/1 17/17/2 2/2/1 
f 2/2/1 1/1/1 18/18/1 
f 21/4/2 3/3/1 2/2/1 
f 2/2/1 23/1/2 21/4/2 
s 4
f 1/20/8 4/22/8 19/21/8 
f 7/24/8 10/25/8 19/21/8 
f 13/27/8 16/28/8 19/21/8 
f 23/32/9 24/33/9 22/31/9 
f 26/35/9 27/36/9 22/31/9 
f 29/38/9 20/29/9 22/31/9 
# 54 faces

