# 3ds Max Wavefront OBJ Exporter v0.97b - (c)2007 guruware
# File Created: 16.01.2022 00:48:04

#
# object PlayerOwner
#

v  -0.7937 0.1270 -0.0000
v  0.0000 0.1270 -0.0000
v  0.0000 0.1270 -0.6350
v  -0.7937 0.1270 -0.6350
v  -1.1112 -0.1270 0.3175
v  -1.1112 -0.1270 -0.0000
v  -0.7937 -0.1270 -0.0000
v  -0.7938 -0.1270 0.6350
v  0.7937 0.1270 0.6350
v  0.7937 0.0000 0.6350
v  1.1112 0.0000 0.3175
v  1.1112 0.1270 0.3175
v  1.1112 0.1270 -0.0000
v  1.1112 0.0000 -0.0000
v  1.1112 0.0000 -0.3175
v  1.1112 0.1270 -0.3175
v  -0.7937 0.0000 -0.6350
v  -1.1112 0.0000 -0.3175
v  -1.1112 0.1270 -0.3175
v  -1.1112 0.1270 -0.0000
v  -1.1112 0.0000 -0.0000
v  -1.1112 0.0000 0.3175
v  -1.1112 0.1270 0.3175
v  -0.7938 0.0000 0.6350
v  -0.7938 0.1270 0.6350
v  0.0000 0.0000 -0.6350
v  0.7938 0.0000 -0.6350
v  0.7938 0.1270 -0.6350
v  -0.0000 0.1270 0.6350
v  -0.0000 0.0000 0.6350
v  0.0000 -0.1270 -0.6350
v  0.0000 -0.1270 -0.0000
v  -0.7937 -0.1270 -0.6350
v  0.7937 0.1270 -0.0000
v  1.1112 -0.1270 -0.3175
v  1.1112 -0.1270 -0.0000
v  0.7937 -0.1270 -0.0000
v  0.7938 -0.1270 -0.6350
v  0.7937 -0.1270 0.6350
v  1.1112 -0.1270 0.3175
v  -1.1112 -0.1270 -0.3175
v  -0.0000 -0.1270 0.6350
# 42 vertices

vn -0.0000 1.0000 0.0000
vn 0.0000 -1.0000 0.0000
vn 0.0000 -1.0000 -0.0000
vn -0.0000 -1.0000 0.0000
vn 0.7071 0.0000 0.7071
vn 1.0000 0.0000 -0.0000
vn -0.7071 0.0000 -0.7071
vn -1.0000 0.0000 -0.0000
vn -0.7071 0.0000 0.7071
vn 0.0000 0.0000 -1.0000
vn 0.7071 0.0000 -0.7071
vn 0.0000 0.0000 1.0000
vn -0.0000 1.0000 -0.0000
vn 0.0000 1.0000 -0.0000
vn -0.0000 -1.0000 -0.0000
vn 0.0000 1.0000 0.0000
# 16 vertex normals

vt 0.3079 0.8127 0.0000
vt 0.5000 0.8127 0.0000
vt 0.5000 0.9664 0.0000
vt 0.3079 0.9664 0.0000
vt 0.7689 0.7359 0.0000
vt 0.7689 0.8127 0.0000
vt 0.6921 0.8127 0.0000
vt 0.6921 0.6591 0.0000
vt 0.3255 0.0408 0.0000
vt 0.3255 0.0217 0.0000
vt 0.3592 0.0217 0.0000
vt 0.3592 0.0408 0.0000
vt 0.3830 0.0408 0.0000
vt 0.3830 0.0217 0.0000
vt 0.4068 0.0217 0.0000
vt 0.4068 0.0408 0.0000
vt 0.5595 0.0408 0.0000
vt 0.5595 0.0217 0.0000
vt 0.5932 0.0217 0.0000
vt 0.5932 0.0408 0.0000
vt 0.6170 0.0408 0.0000
vt 0.6170 0.0217 0.0000
vt 0.6408 0.0217 0.0000
vt 0.6408 0.0408 0.0000
vt 0.6745 0.0217 0.0000
vt 0.6745 0.0408 0.0000
vt 0.5000 0.0408 0.0000
vt 0.5000 0.0217 0.0000
vt 0.4405 0.0217 0.0000
vt 0.4405 0.0408 0.0000
vt 0.2660 0.0408 0.0000
vt 0.2660 0.0217 0.0000
vt 0.2311 0.8896 0.0000
vt 0.2311 0.8127 0.0000
vt 0.6921 0.9664 0.0000
vt 0.7340 0.0408 0.0000
vt 0.7340 0.0217 0.0000
vt 0.5000 0.6591 0.0000
vt 0.3079 0.6591 0.0000
vt 0.7689 0.8896 0.0000
vt 0.2311 0.7359 0.0000
# 41 texture coords

o PlayerOwner
g PlayerOwner
s 1
f 1/1/1 2/2/1 3/3/1 
f 3/3/1 4/4/1 1/1/1 
f 5/5/2 6/6/3 7/7/4 
f 7/7/4 8/8/4 5/5/2 
s 2
f 9/9/5 10/10/5 11/11/5 
f 11/11/5 12/12/5 9/9/5 
s 4
f 13/13/6 14/14/6 15/15/6 
f 15/15/6 16/16/6 13/13/6 
s 2
f 4/17/7 17/18/7 18/19/7 
f 18/19/7 19/20/7 4/17/7 
s 4
f 20/21/8 21/22/8 22/23/8 
f 22/23/8 23/24/8 20/21/8 
s 2
f 23/24/9 22/23/9 24/25/9 
f 24/25/9 25/26/9 23/24/9 
s 4
f 3/27/10 26/28/10 17/18/10 
f 17/18/10 4/17/10 3/27/10 
s 2
f 16/16/11 15/15/11 27/29/11 
f 27/29/11 28/30/11 16/16/11 
s 4
f 29/31/12 30/32/12 10/10/12 
f 10/10/12 9/9/12 29/31/12 
s 1
f 19/33/13 20/34/14 1/1/1 
f 1/1/1 4/4/1 19/33/13 
f 31/3/3 32/2/3 7/7/4 
f 7/7/4 33/35/15 31/3/3 
f 12/5/16 13/6/16 34/7/16 
f 34/7/16 9/8/16 12/5/16 
f 35/33/3 36/34/2 37/1/2 
f 37/1/2 38/4/3 35/33/3 
s 2
f 39/9/5 40/12/5 11/11/5 
f 11/11/5 10/10/5 39/9/5 
s 4
f 40/12/6 36/13/6 14/14/6 
f 14/14/6 11/11/6 40/12/6 
s 2
f 33/17/7 41/20/7 18/19/7 
f 18/19/7 17/18/7 33/17/7 
s 4
f 41/20/8 6/21/8 21/22/8 
f 21/22/8 18/19/8 41/20/8 
s 2
f 5/24/9 8/26/9 24/25/9 
f 24/25/9 22/23/9 5/24/9 
s 4
f 38/30/10 31/27/10 26/28/10 
f 26/28/10 27/29/10 38/30/10 
s 2
f 35/16/11 38/30/11 27/29/11 
f 27/29/11 15/15/11 35/16/11 
s 4
f 8/26/12 42/36/12 30/37/12 
f 30/37/12 24/25/12 8/26/12 
s 1
f 9/8/16 34/7/16 2/2/1 
f 2/2/1 29/38/1 9/8/16 
s 4
f 28/30/10 27/29/10 26/28/10 
f 26/28/10 3/27/10 28/30/10 
f 25/26/12 24/25/12 30/37/12 
f 30/37/12 29/36/12 25/26/12 
s 1
f 38/4/3 37/1/2 32/2/3 
f 32/2/3 31/3/3 38/4/3 
s 4
f 33/17/10 17/18/10 26/28/10 
f 26/28/10 31/27/10 33/17/10 
f 39/9/12 10/10/12 30/32/12 
f 30/32/12 42/31/12 39/9/12 
s 1
f 25/39/16 29/38/1 2/2/1 
f 2/2/1 1/1/1 25/39/16 
f 41/40/15 33/35/15 7/7/4 
f 7/7/4 6/6/3 41/40/15 
s 4
f 12/12/6 11/11/6 14/14/6 
f 14/14/6 13/13/6 12/12/6 
f 19/20/8 18/19/8 21/22/8 
f 21/22/8 20/21/8 19/20/8 
s 1
f 23/41/16 25/39/16 1/1/1 
f 1/1/1 20/34/14 23/41/16 
f 42/38/4 8/8/4 7/7/4 
f 7/7/4 32/2/3 42/38/4 
f 16/40/16 28/35/14 34/7/16 
f 34/7/16 13/6/16 16/40/16 
f 40/41/2 39/39/2 37/1/2 
f 37/1/2 36/34/2 40/41/2 
s 4
f 35/16/6 15/15/6 14/14/6 
f 14/14/6 36/13/6 35/16/6 
f 5/24/8 22/23/8 21/22/8 
f 21/22/8 6/21/8 5/24/8 
s 1
f 28/35/14 3/3/1 2/2/1 
f 2/2/1 34/7/16 28/35/14 
f 39/39/2 42/38/4 32/2/3 
f 32/2/3 37/1/2 39/39/2 
# 80 faces

