# 3ds Max Wavefront OBJ Exporter v0.97b - (c)2007 guruware
# File Created: 16.01.2022 19:10:07

#
# object Round_1Sided
#

v  -0.0000 0.0000 -1.2700
v  -0.1245 0.0000 -1.2639
v  -0.1245 0.1270 -1.2639
v  -0.0000 0.1270 -1.2700
v  -0.2478 0.0000 -1.2456
v  -0.2478 0.1270 -1.2456
v  -0.3687 0.0000 -1.2153
v  -0.3687 0.1270 -1.2153
v  -0.4860 0.0000 -1.1733
v  -0.4860 0.1270 -1.1733
v  -0.5987 0.0000 -1.1200
v  -0.5987 0.1270 -1.1200
v  -0.7056 0.0000 -1.0560
v  -0.7056 0.1270 -1.0560
v  -0.8057 0.0000 -0.9817
v  -0.8057 0.1270 -0.9817
v  -0.8980 0.0000 -0.8980
v  -0.8980 0.1270 -0.8980
v  -0.9817 0.0000 -0.8057
v  -0.9817 0.1270 -0.8057
v  -1.0560 0.0000 -0.7056
v  -1.0560 0.1270 -0.7056
v  -1.1200 0.0000 -0.5987
v  -1.1200 0.1270 -0.5987
v  -1.1733 0.0000 -0.4860
v  -1.1733 0.1270 -0.4860
v  -1.2153 0.0000 -0.3687
v  -1.2153 0.1270 -0.3687
v  -1.2456 0.0000 -0.2478
v  -1.2456 0.1270 -0.2478
v  -1.2639 0.0000 -0.1245
v  -1.2639 0.1270 -0.1245
v  -1.2700 0.0000 0.0000
v  -1.2700 0.1270 0.0000
v  -1.2639 0.0000 0.1245
v  -1.2639 0.1270 0.1245
v  -1.2456 0.0000 0.2478
v  -1.2456 0.1270 0.2478
v  -1.2153 0.0000 0.3687
v  -1.2153 0.1270 0.3687
v  -1.1733 0.0000 0.4860
v  -1.1733 0.1270 0.4860
v  -1.1200 0.0000 0.5987
v  -1.1200 0.1270 0.5987
v  -1.0560 0.0000 0.7056
v  -1.0560 0.1270 0.7056
v  -0.9817 0.0000 0.8057
v  -0.9817 0.1270 0.8057
v  -0.8980 0.0000 0.8980
v  -0.8980 0.1270 0.8980
v  -0.8057 0.0000 0.9817
v  -0.8057 0.1270 0.9817
v  -0.7056 0.0000 1.0560
v  -0.7056 0.1270 1.0560
v  -0.5987 0.0000 1.1200
v  -0.5987 0.1270 1.1200
v  -0.4860 0.0000 1.1733
v  -0.4860 0.1270 1.1733
v  -0.3687 0.0000 1.2153
v  -0.3687 0.1270 1.2153
v  -0.2478 0.0000 1.2456
v  -0.2478 0.1270 1.2456
v  -0.1245 0.0000 1.2639
v  -0.1245 0.1270 1.2639
v  0.0000 0.0000 1.2700
v  0.0000 0.1270 1.2700
v  0.1245 0.0000 1.2639
v  0.1245 0.1270 1.2639
v  0.2478 0.0000 1.2456
v  0.2478 0.1270 1.2456
v  0.3687 0.0000 1.2153
v  0.3687 0.1270 1.2153
v  0.4860 0.0000 1.1733
v  0.4860 0.1270 1.1733
v  0.5987 0.0000 1.1200
v  0.5987 0.1270 1.1200
v  0.7056 0.0000 1.0560
v  0.7056 0.1270 1.0560
v  0.8057 0.0000 0.9817
v  0.8057 0.1270 0.9817
v  0.8980 0.0000 0.8980
v  0.8980 0.1270 0.8980
v  0.9817 0.0000 0.8057
v  0.9817 0.1270 0.8057
v  1.0560 0.0000 0.7056
v  1.0560 0.1270 0.7056
v  1.1200 0.0000 0.5987
v  1.1200 0.1270 0.5987
v  1.1733 0.0000 0.4860
v  1.1733 0.1270 0.4860
v  1.2153 0.0000 0.3687
v  1.2153 0.1270 0.3687
v  1.2456 0.0000 0.2478
v  1.2456 0.1270 0.2478
v  1.2639 0.0000 0.1245
v  1.2639 0.1270 0.1245
v  1.2700 0.0000 0.0000
v  1.2700 0.1270 0.0000
v  1.2639 0.0000 -0.1245
v  1.2639 0.1270 -0.1245
v  1.2456 0.0000 -0.2478
v  1.2456 0.1270 -0.2478
v  1.2153 0.0000 -0.3687
v  1.2153 0.1270 -0.3687
v  1.1733 0.0000 -0.4860
v  1.1733 0.1270 -0.4860
v  1.1200 0.0000 -0.5987
v  1.1200 0.1270 -0.5987
v  1.0560 0.0000 -0.7056
v  1.0560 0.1270 -0.7056
v  0.9817 0.0000 -0.8057
v  0.9817 0.1270 -0.8057
v  0.8980 0.0000 -0.8980
v  0.8980 0.1270 -0.8980
v  0.8057 0.0000 -0.9817
v  0.8057 0.1270 -0.9817
v  0.7056 0.0000 -1.0560
v  0.7056 0.1270 -1.0560
v  0.5987 0.0000 -1.1200
v  0.5987 0.1270 -1.1200
v  0.4860 0.0000 -1.1733
v  0.4860 0.1270 -1.1733
v  0.3687 0.0000 -1.2153
v  0.3687 0.1270 -1.2153
v  0.2478 0.0000 -1.2456
v  0.2478 0.1270 -1.2456
v  0.1245 0.0000 -1.2639
v  0.1245 0.1270 -1.2639
# 128 vertices

vn 0.0000 0.0000 -1.0000
vn -0.0980 0.0000 -0.9952
vn -0.1951 0.0000 -0.9808
vn -0.2903 0.0000 -0.9569
vn -0.3827 0.0000 -0.9239
vn -0.4714 0.0000 -0.8819
vn -0.5556 0.0000 -0.8315
vn -0.6344 0.0000 -0.7730
vn -0.7071 0.0000 -0.7071
vn -0.7730 0.0000 -0.6344
vn -0.8315 0.0000 -0.5556
vn -0.8819 0.0000 -0.4714
vn -0.9239 0.0000 -0.3827
vn -0.9569 0.0000 -0.2903
vn -0.9808 0.0000 -0.1951
vn -0.9952 0.0000 -0.0980
vn -1.0000 0.0000 0.0000
vn -0.9952 0.0000 0.0980
vn -0.9808 0.0000 0.1951
vn -0.9569 0.0000 0.2903
vn -0.9239 0.0000 0.3827
vn -0.8819 0.0000 0.4714
vn -0.8315 0.0000 0.5556
vn -0.7730 0.0000 0.6344
vn -0.7071 0.0000 0.7071
vn -0.6344 0.0000 0.7730
vn -0.5556 0.0000 0.8315
vn -0.4714 0.0000 0.8819
vn -0.3827 0.0000 0.9239
vn -0.2903 0.0000 0.9569
vn -0.1951 0.0000 0.9808
vn -0.0980 0.0000 0.9952
vn 0.0000 0.0000 1.0000
vn 0.0980 0.0000 0.9952
vn 0.1951 0.0000 0.9808
vn 0.2903 0.0000 0.9569
vn 0.3827 0.0000 0.9239
vn 0.4714 0.0000 0.8819
vn 0.5556 0.0000 0.8315
vn 0.6344 0.0000 0.7730
vn 0.7071 0.0000 0.7071
vn 0.7730 0.0000 0.6344
vn 0.8315 0.0000 0.5556
vn 0.8819 0.0000 0.4714
vn 0.9239 0.0000 0.3827
vn 0.9569 0.0000 0.2903
vn 0.9808 0.0000 0.1951
vn 0.9952 0.0000 0.0980
vn 1.0000 0.0000 0.0000
vn 0.9952 0.0000 -0.0980
vn 0.9808 0.0000 -0.1951
vn 0.9569 0.0000 -0.2903
vn 0.9239 0.0000 -0.3827
vn 0.8819 0.0000 -0.4714
vn 0.8315 0.0000 -0.5556
vn 0.7730 0.0000 -0.6344
vn 0.7071 0.0000 -0.7071
vn 0.6344 0.0000 -0.7730
vn 0.5556 0.0000 -0.8315
vn 0.4714 0.0000 -0.8819
vn 0.3827 0.0000 -0.9239
vn 0.2903 0.0000 -0.9569
vn 0.1951 0.0000 -0.9808
vn 0.0980 0.0000 -0.9952
vn 0.0000 1.0000 -0.0000
# 65 vertex normals

vt 0.3463 0.0122 0.0000
vt 0.3558 0.0122 0.0000
vt 0.3558 0.0503 0.0000
vt 0.3463 0.0503 0.0000
vt 0.3653 0.0122 0.0000
vt 0.3653 0.0503 0.0000
vt 0.3748 0.0122 0.0000
vt 0.3748 0.0503 0.0000
vt 0.3844 0.0122 0.0000
vt 0.3844 0.0503 0.0000
vt 0.3940 0.0122 0.0000
vt 0.3940 0.0503 0.0000
vt 0.4036 0.0122 0.0000
vt 0.4036 0.0503 0.0000
vt 0.4132 0.0122 0.0000
vt 0.4132 0.0503 0.0000
vt 0.4228 0.0122 0.0000
vt 0.4228 0.0503 0.0000
vt 0.4324 0.0122 0.0000
vt 0.4324 0.0503 0.0000
vt 0.4420 0.0122 0.0000
vt 0.4420 0.0503 0.0000
vt 0.4517 0.0122 0.0000
vt 0.4517 0.0503 0.0000
vt 0.4613 0.0122 0.0000
vt 0.4613 0.0503 0.0000
vt 0.4710 0.0122 0.0000
vt 0.4710 0.0503 0.0000
vt 0.4807 0.0122 0.0000
vt 0.4807 0.0503 0.0000
vt 0.4903 0.0122 0.0000
vt 0.4903 0.0503 0.0000
vt 0.5000 0.0122 0.0000
vt 0.5000 0.0503 0.0000
vt 0.5097 0.0122 0.0000
vt 0.5097 0.0503 0.0000
vt 0.5193 0.0122 0.0000
vt 0.5193 0.0503 0.0000
vt 0.5290 0.0122 0.0000
vt 0.5290 0.0503 0.0000
vt 0.5387 0.0122 0.0000
vt 0.5387 0.0503 0.0000
vt 0.5483 0.0122 0.0000
vt 0.5483 0.0503 0.0000
vt 0.5580 0.0122 0.0000
vt 0.5580 0.0503 0.0000
vt 0.5676 0.0122 0.0000
vt 0.5676 0.0503 0.0000
vt 0.5772 0.0122 0.0000
vt 0.5772 0.0503 0.0000
vt 0.5868 0.0122 0.0000
vt 0.5868 0.0503 0.0000
vt 0.5964 0.0122 0.0000
vt 0.5964 0.0503 0.0000
vt 0.6060 0.0122 0.0000
vt 0.6060 0.0503 0.0000
vt 0.6156 0.0122 0.0000
vt 0.6156 0.0503 0.0000
vt 0.6252 0.0122 0.0000
vt 0.6252 0.0503 0.0000
vt 0.6347 0.0122 0.0000
vt 0.6347 0.0503 0.0000
vt 0.6442 0.0122 0.0000
vt 0.6442 0.0503 0.0000
vt 0.6537 0.0122 0.0000
vt 0.6537 0.0503 0.0000
vt 0.6632 0.0122 0.0000
vt 0.6632 0.0503 0.0000
vt 0.6727 0.0122 0.0000
vt 0.6727 0.0503 0.0000
vt 0.6822 0.0122 0.0000
vt 0.6822 0.0503 0.0000
vt 0.6916 0.0122 0.0000
vt 0.6916 0.0503 0.0000
vt 0.7011 0.0122 0.0000
vt 0.7011 0.0503 0.0000
vt 0.7105 0.0122 0.0000
vt 0.7105 0.0503 0.0000
vt 0.7199 0.0122 0.0000
vt 0.7199 0.0503 0.0000
vt 0.7293 0.0122 0.0000
vt 0.7293 0.0503 0.0000
vt 0.7387 0.0122 0.0000
vt 0.7387 0.0503 0.0000
vt 0.7481 0.0122 0.0000
vt 0.7481 0.0503 0.0000
vt 0.7575 0.0122 0.0000
vt 0.7575 0.0503 0.0000
vt 0.7668 0.0122 0.0000
vt 0.7668 0.0503 0.0000
vt 0.7762 0.0122 0.0000
vt 0.7762 0.0503 0.0000
vt 0.7855 0.0122 0.0000
vt 0.7855 0.0503 0.0000
vt 0.7949 0.0122 0.0000
vt 0.7949 0.0503 0.0000
vt 0.8042 0.0122 0.0000
vt 0.8042 0.0503 0.0000
vt 0.1958 0.0122 0.0000
vt 0.2051 0.0122 0.0000
vt 0.2051 0.0503 0.0000
vt 0.1958 0.0503 0.0000
vt 0.2145 0.0122 0.0000
vt 0.2145 0.0503 0.0000
vt 0.2238 0.0122 0.0000
vt 0.2238 0.0503 0.0000
vt 0.2332 0.0122 0.0000
vt 0.2332 0.0503 0.0000
vt 0.2425 0.0122 0.0000
vt 0.2425 0.0503 0.0000
vt 0.2519 0.0122 0.0000
vt 0.2519 0.0503 0.0000
vt 0.2613 0.0122 0.0000
vt 0.2613 0.0503 0.0000
vt 0.2707 0.0122 0.0000
vt 0.2707 0.0503 0.0000
vt 0.2801 0.0122 0.0000
vt 0.2801 0.0503 0.0000
vt 0.2895 0.0122 0.0000
vt 0.2895 0.0503 0.0000
vt 0.2989 0.0122 0.0000
vt 0.2989 0.0503 0.0000
vt 0.3084 0.0122 0.0000
vt 0.3084 0.0503 0.0000
vt 0.3178 0.0122 0.0000
vt 0.3178 0.0503 0.0000
vt 0.3273 0.0122 0.0000
vt 0.3273 0.0503 0.0000
vt 0.3368 0.0122 0.0000
vt 0.3368 0.0503 0.0000
vt 0.9318 0.5000 0.0000
vt 0.9297 0.5423 0.0000
vt 0.9235 0.5842 0.0000
vt 0.9132 0.6253 0.0000
vt 0.8989 0.6652 0.0000
vt 0.8808 0.7035 0.0000
vt 0.8590 0.7399 0.0000
vt 0.8338 0.7739 0.0000
vt 0.8053 0.8053 0.0000
vt 0.7739 0.8338 0.0000
vt 0.7399 0.8590 0.0000
vt 0.7035 0.8808 0.0000
vt 0.6652 0.8989 0.0000
vt 0.6253 0.9132 0.0000
vt 0.5842 0.9235 0.0000
vt 0.5423 0.9297 0.0000
vt 0.5000 0.9318 0.0000
vt 0.4577 0.9297 0.0000
vt 0.4158 0.9235 0.0000
vt 0.3747 0.9132 0.0000
vt 0.3348 0.8989 0.0000
vt 0.2965 0.8808 0.0000
vt 0.2601 0.8590 0.0000
vt 0.2261 0.8338 0.0000
vt 0.1947 0.8053 0.0000
vt 0.1662 0.7739 0.0000
vt 0.1410 0.7399 0.0000
vt 0.1192 0.7035 0.0000
vt 0.1011 0.6652 0.0000
vt 0.0868 0.6253 0.0000
vt 0.0765 0.5842 0.0000
vt 0.0703 0.5423 0.0000
vt 0.0682 0.5000 0.0000
vt 0.0703 0.4577 0.0000
vt 0.0765 0.4158 0.0000
vt 0.0868 0.3747 0.0000
vt 0.1011 0.3348 0.0000
vt 0.1192 0.2965 0.0000
vt 0.1410 0.2601 0.0000
vt 0.1662 0.2261 0.0000
vt 0.1947 0.1947 0.0000
vt 0.2261 0.1662 0.0000
vt 0.2601 0.1410 0.0000
vt 0.2965 0.1192 0.0000
vt 0.3348 0.1011 0.0000
vt 0.3747 0.0868 0.0000
vt 0.4158 0.0765 0.0000
vt 0.4577 0.0703 0.0000
vt 0.5000 0.0682 0.0000
vt 0.5423 0.0703 0.0000
vt 0.5842 0.0765 0.0000
vt 0.6253 0.0868 0.0000
vt 0.6652 0.1011 0.0000
vt 0.7035 0.1192 0.0000
vt 0.7399 0.1410 0.0000
vt 0.7739 0.1662 0.0000
vt 0.8053 0.1947 0.0000
vt 0.8338 0.2261 0.0000
vt 0.8590 0.2601 0.0000
vt 0.8808 0.2964 0.0000
vt 0.8989 0.3348 0.0000
vt 0.9132 0.3747 0.0000
vt 0.9235 0.4158 0.0000
vt 0.9297 0.4577 0.0000
# 194 texture coords

o Round_1Sided
g Round_1Sided
s 8
f 1/1/1 2/2/2 3/3/2 
f 3/3/2 4/4/1 1/1/1 
f 2/2/2 5/5/3 6/6/3 
f 6/6/3 3/3/2 2/2/2 
f 5/5/3 7/7/4 8/8/4 
f 8/8/4 6/6/3 5/5/3 
f 7/7/4 9/9/5 10/10/5 
f 10/10/5 8/8/4 7/7/4 
f 9/9/5 11/11/6 12/12/6 
f 12/12/6 10/10/5 9/9/5 
f 11/11/6 13/13/7 14/14/7 
f 14/14/7 12/12/6 11/11/6 
f 13/13/7 15/15/8 16/16/8 
f 16/16/8 14/14/7 13/13/7 
f 15/15/8 17/17/9 18/18/9 
f 18/18/9 16/16/8 15/15/8 
f 17/17/9 19/19/10 20/20/10 
f 20/20/10 18/18/9 17/17/9 
f 19/19/10 21/21/11 22/22/11 
f 22/22/11 20/20/10 19/19/10 
f 21/21/11 23/23/12 24/24/12 
f 24/24/12 22/22/11 21/21/11 
f 23/23/12 25/25/13 26/26/13 
f 26/26/13 24/24/12 23/23/12 
f 25/25/13 27/27/14 28/28/14 
f 28/28/14 26/26/13 25/25/13 
f 27/27/14 29/29/15 30/30/15 
f 30/30/15 28/28/14 27/27/14 
f 29/29/15 31/31/16 32/32/16 
f 32/32/16 30/30/15 29/29/15 
f 31/31/16 33/33/17 34/34/17 
f 34/34/17 32/32/16 31/31/16 
f 33/33/17 35/35/18 36/36/18 
f 36/36/18 34/34/17 33/33/17 
f 35/35/18 37/37/19 38/38/19 
f 38/38/19 36/36/18 35/35/18 
f 37/37/19 39/39/20 40/40/20 
f 40/40/20 38/38/19 37/37/19 
f 39/39/20 41/41/21 42/42/21 
f 42/42/21 40/40/20 39/39/20 
f 41/41/21 43/43/22 44/44/22 
f 44/44/22 42/42/21 41/41/21 
f 43/43/22 45/45/23 46/46/23 
f 46/46/23 44/44/22 43/43/22 
f 45/45/23 47/47/24 48/48/24 
f 48/48/24 46/46/23 45/45/23 
f 47/47/24 49/49/25 50/50/25 
f 50/50/25 48/48/24 47/47/24 
f 49/49/25 51/51/26 52/52/26 
f 52/52/26 50/50/25 49/49/25 
f 51/51/26 53/53/27 54/54/27 
f 54/54/27 52/52/26 51/51/26 
f 53/53/27 55/55/28 56/56/28 
f 56/56/28 54/54/27 53/53/27 
f 55/55/28 57/57/29 58/58/29 
f 58/58/29 56/56/28 55/55/28 
f 57/57/29 59/59/30 60/60/30 
f 60/60/30 58/58/29 57/57/29 
f 59/59/30 61/61/31 62/62/31 
f 62/62/31 60/60/30 59/59/30 
f 61/61/31 63/63/32 64/64/32 
f 64/64/32 62/62/31 61/61/31 
f 63/63/32 65/65/33 66/66/33 
f 66/66/33 64/64/32 63/63/32 
f 65/65/33 67/67/34 68/68/34 
f 68/68/34 66/66/33 65/65/33 
f 67/67/34 69/69/35 70/70/35 
f 70/70/35 68/68/34 67/67/34 
f 69/69/35 71/71/36 72/72/36 
f 72/72/36 70/70/35 69/69/35 
f 71/71/36 73/73/37 74/74/37 
f 74/74/37 72/72/36 71/71/36 
f 73/73/37 75/75/38 76/76/38 
f 76/76/38 74/74/37 73/73/37 
f 75/75/38 77/77/39 78/78/39 
f 78/78/39 76/76/38 75/75/38 
f 77/77/39 79/79/40 80/80/40 
f 80/80/40 78/78/39 77/77/39 
f 79/79/40 81/81/41 82/82/41 
f 82/82/41 80/80/40 79/79/40 
f 81/81/41 83/83/42 84/84/42 
f 84/84/42 82/82/41 81/81/41 
f 83/83/42 85/85/43 86/86/43 
f 86/86/43 84/84/42 83/83/42 
f 85/85/43 87/87/44 88/88/44 
f 88/88/44 86/86/43 85/85/43 
f 87/87/44 89/89/45 90/90/45 
f 90/90/45 88/88/44 87/87/44 
f 89/89/45 91/91/46 92/92/46 
f 92/92/46 90/90/45 89/89/45 
f 91/91/46 93/93/47 94/94/47 
f 94/94/47 92/92/46 91/91/46 
f 93/93/47 95/95/48 96/96/48 
f 96/96/48 94/94/47 93/93/47 
f 95/95/48 97/97/49 98/98/49 
f 98/98/49 96/96/48 95/95/48 
f 97/99/49 99/100/50 100/101/50 
f 100/101/50 98/102/49 97/99/49 
f 99/100/50 101/103/51 102/104/51 
f 102/104/51 100/101/50 99/100/50 
f 101/103/51 103/105/52 104/106/52 
f 104/106/52 102/104/51 101/103/51 
f 103/105/52 105/107/53 106/108/53 
f 106/108/53 104/106/52 103/105/52 
f 105/107/53 107/109/54 108/110/54 
f 108/110/54 106/108/53 105/107/53 
f 107/109/54 109/111/55 110/112/55 
f 110/112/55 108/110/54 107/109/54 
f 109/111/55 111/113/56 112/114/56 
f 112/114/56 110/112/55 109/111/55 
f 111/113/56 113/115/57 114/116/57 
f 114/116/57 112/114/56 111/113/56 
f 113/115/57 115/117/58 116/118/58 
f 116/118/58 114/116/57 113/115/57 
f 115/117/58 117/119/59 118/120/59 
f 118/120/59 116/118/58 115/117/58 
f 117/119/59 119/121/60 120/122/60 
f 120/122/60 118/120/59 117/119/59 
f 119/121/60 121/123/61 122/124/61 
f 122/124/61 120/122/60 119/121/60 
f 121/123/61 123/125/62 124/126/62 
f 124/126/62 122/124/61 121/123/61 
f 123/125/62 125/127/63 126/128/63 
f 126/128/63 124/126/62 123/125/62 
f 125/127/63 127/129/64 128/130/64 
f 128/130/64 126/128/63 125/127/63 
f 127/129/64 1/1/1 4/4/1 
f 4/4/1 128/130/64 127/129/64 
s 1
f 4/131/65 3/132/65 6/133/65 
f 6/133/65 8/134/65 10/135/65 
f 10/135/65 12/136/65 14/137/65 
f 6/133/65 10/135/65 14/137/65 
f 14/137/65 16/138/65 18/139/65 
f 18/139/65 20/140/65 22/141/65 
f 14/137/65 18/139/65 22/141/65 
f 22/141/65 24/142/65 26/143/65 
f 26/143/65 28/144/65 30/145/65 
f 22/141/65 26/143/65 30/145/65 
f 14/137/65 22/141/65 30/145/65 
f 30/145/65 32/146/65 34/147/65 
f 34/147/65 36/148/65 38/149/65 
f 30/145/65 34/147/65 38/149/65 
f 38/149/65 40/150/65 42/151/65 
f 42/151/65 44/152/65 46/153/65 
f 38/149/65 42/151/65 46/153/65 
f 30/145/65 38/149/65 46/153/65 
f 46/153/65 48/154/65 50/155/65 
f 50/155/65 52/156/65 54/157/65 
f 46/153/65 50/155/65 54/157/65 
f 54/157/65 56/158/65 58/159/65 
f 58/159/65 60/160/65 62/161/65 
f 54/157/65 58/159/65 62/161/65 
f 46/153/65 54/157/65 62/161/65 
f 30/145/65 46/153/65 62/161/65 
f 62/161/65 64/162/65 66/163/65 
f 66/163/65 68/164/65 70/165/65 
f 62/161/65 66/163/65 70/165/65 
f 70/165/65 72/166/65 74/167/65 
f 74/167/65 76/168/65 78/169/65 
f 70/165/65 74/167/65 78/169/65 
f 62/161/65 70/165/65 78/169/65 
f 78/169/65 80/170/65 82/171/65 
f 82/171/65 84/172/65 86/173/65 
f 78/169/65 82/171/65 86/173/65 
f 86/173/65 88/174/65 90/175/65 
f 90/175/65 92/176/65 94/177/65 
f 86/173/65 90/175/65 94/177/65 
f 78/169/65 86/173/65 94/177/65 
f 62/161/65 78/169/65 94/177/65 
f 94/177/65 96/178/65 98/179/65 
f 98/179/65 100/180/65 102/181/65 
f 94/177/65 98/179/65 102/181/65 
f 102/181/65 104/182/65 106/183/65 
f 106/183/65 108/184/65 110/185/65 
f 102/181/65 106/183/65 110/185/65 
f 94/177/65 102/181/65 110/185/65 
f 110/185/65 112/186/65 114/187/65 
f 114/187/65 116/188/65 118/189/65 
f 110/185/65 114/187/65 118/189/65 
f 118/189/65 120/190/65 122/191/65 
f 122/191/65 124/192/65 126/193/65 
f 118/189/65 122/191/65 126/193/65 
f 110/185/65 118/189/65 126/193/65 
f 94/177/65 110/185/65 126/193/65 
f 62/161/65 94/177/65 126/193/65 
f 30/145/65 62/161/65 126/193/65 
f 14/137/65 30/145/65 126/193/65 
f 6/133/65 14/137/65 126/193/65 
f 4/131/65 6/133/65 126/193/65 
f 128/194/65 4/131/65 126/193/65 
# 190 faces

