# Blender v2.91.0 OBJ File: 'untitled.blend'
# www.blender.org
mtllib untitled.mtl
o HelperAgendaLaws
v -4.910267 0.125000 -1.406250
v -5.066517 0.125000 -1.562500
v -5.066517 0.125000 2.187500
v -4.910267 0.125000 2.031250
v -2.254017 0.125000 2.187500
v -2.410267 0.125000 2.031250
v -2.254017 0.125000 -1.562500
v -2.410267 0.125000 -1.406250
v -2.254017 0.125000 -2.187500
v -5.066517 0.125000 -2.187500
v -2.097767 0.125000 -1.406250
v -2.097767 0.125000 2.031250
v 0.558483 0.125000 2.187500
v 0.402233 0.125000 2.031250
v 0.558483 0.125000 -1.562500
v 0.402233 0.125000 -1.406250
v 0.558483 0.125000 -2.187500
v 0.714733 0.125000 -1.406250
v 0.714733 0.125000 2.031250
v 3.370983 0.125000 2.187500
v 3.214733 0.125000 2.031250
v 3.370983 0.125000 -1.562500
v 3.214733 0.125000 -1.406250
v 3.370983 0.125000 -2.187500
v 3.527233 0.125000 -1.406250
v 3.527233 0.125000 2.031250
v 6.183483 0.125000 2.187500
v 6.027233 0.125000 2.031250
v 6.183483 0.125000 -1.562500
v 6.027233 0.125000 -1.406250
v 6.183483 0.125000 -2.187500
v 6.339733 0.125000 -1.406250
v 6.339733 0.125000 2.031250
v 8.995983 0.125000 2.187500
v 8.839733 0.125000 2.031250
v 8.995983 0.125000 -1.562500
v 8.839733 0.125000 -1.406250
v 8.995983 0.125000 -2.187500
v -6.183483 0.125000 -1.562500
v -6.183483 0.125000 2.187500
v -6.183483 0.125000 -2.187500
v -8.839733 0.125000 -1.406250
v -8.995983 0.125000 -1.562500
v -8.995983 0.125000 2.187500
v -8.839733 0.125000 2.031250
v -6.339733 0.125000 2.031250
v -6.339733 0.125000 -1.406250
v -8.995983 0.125000 -2.187500
v -5.066517 -0.125000 -1.562500
v -5.066517 -0.125000 -2.187500
v -2.254017 -0.125000 -2.187500
v -2.254017 -0.125000 -1.562500
v 0.558483 -0.125000 -2.187500
v 0.558483 -0.125000 -1.562500
v 3.370983 -0.125000 -2.187500
v 3.370983 -0.125000 -1.562500
v 6.183483 -0.125000 -2.187500
v 6.183483 -0.125000 -1.562500
v 8.995983 -0.125000 -2.187500
v 8.995983 -0.125000 -1.562500
v -5.066517 -0.125000 2.187500
v -6.183483 -0.125000 2.187500
v -6.183483 -0.125000 -1.562500
v -6.183483 -0.125000 -2.187500
v -8.995983 -0.125000 -1.562500
v -8.995983 -0.125000 -2.187500
v -2.254017 -0.125000 -2.187500
v -5.066517 -0.125000 -2.187500
v -5.066517 0.125000 -2.187500
v -2.254017 0.125000 -2.187500
v 0.558483 -0.125000 -2.187500
v 0.558483 0.125000 -2.187500
v 3.370983 -0.125000 -2.187500
v 3.370983 0.125000 -2.187500
v 6.183483 -0.125000 -2.187500
v 6.183483 0.125000 -2.187500
v 8.995983 -0.125000 2.187500
v 8.995983 -0.125000 -1.562500
v 8.995983 0.125000 -1.562500
v 8.995983 0.125000 2.187500
v 8.995983 -0.125000 -2.187500
v 8.995983 0.125000 -2.187500
v 8.995983 -0.125000 -2.187500
v 8.995983 0.125000 -2.187500
v -6.183483 -0.125000 -2.187500
v -6.183483 0.125000 -2.187500
v -8.995983 -0.125000 -1.562500
v -8.995983 -0.125000 2.187500
v -8.995983 0.125000 2.187500
v -8.995983 0.125000 -1.562500
v -8.995983 -0.125000 -2.187500
v -8.995983 0.125000 -2.187500
v -8.995983 -0.125000 -2.187500
v -8.995983 0.125000 -2.187500
v -6.183483 0.125000 2.187500
v -8.995983 0.125000 2.187500
v -8.995983 -0.125000 2.187500
v -5.066517 0.125000 2.187500
v 6.183483 -0.125000 2.187500
v 8.995983 -0.125000 2.187500
v 8.995983 0.125000 2.187500
v 3.370983 -0.125000 2.187500
v 0.558483 -0.125000 2.187500
v -2.254017 -0.125000 2.187500
v -5.066517 -0.125000 2.187500
v -6.183483 -0.125000 2.187500
v 6.183483 0.125000 2.187500
v 3.370983 0.125000 2.187500
v 0.558483 0.125000 2.187500
v -2.254017 0.125000 2.187500
v -2.254017 -0.125000 2.187500
v 0.558483 -0.125000 2.187500
v 3.370983 -0.125000 2.187500
v 6.183483 -0.125000 2.187500
v 8.995983 -0.125000 2.187500
v -8.995983 -0.125000 2.187500
vt 0.000000 0.000000
vt 0.000000 0.000000
vt 0.000000 0.000000
vt 0.000000 0.000000
vt 0.000000 0.000000
vt 0.000000 0.000000
vt 0.000000 0.000000
vt 0.000000 0.000000
vt 0.172376 0.140004
vt 0.042729 0.140004
vt 0.042729 0.082383
vt 0.172376 0.082383
vt 0.000000 0.000000
vt 0.000000 0.000000
vt 0.000000 0.000000
vt 0.000000 0.000000
vt 0.000000 0.000000
vt 0.000000 0.000000
vt 0.302023 0.140004
vt 0.302023 0.082383
vt 0.000000 0.000000
vt 0.000000 0.000000
vt 0.000000 0.000000
vt 0.000000 0.000000
vt 0.000000 0.000000
vt 0.000000 0.000000
vt 0.431670 0.140004
vt 0.431670 0.082383
vt 0.000000 0.000000
vt 0.000000 0.000000
vt 0.000000 0.000000
vt 0.000000 0.000000
vt 0.000000 0.000000
vt 0.000000 0.000000
vt 0.561317 0.140004
vt 0.561317 0.082383
vt 0.000000 0.000000
vt 0.000000 0.000000
vt 0.000000 0.000000
vt 0.000000 0.000000
vt 0.000000 0.000000
vt 0.000000 0.000000
vt 0.690963 0.140004
vt 0.690963 0.082383
vt 0.000000 0.000000
vt 0.000000 0.000000
vt 0.000000 0.000000
vt 0.000000 0.000000
vt 0.000000 0.000000
vt 0.000000 0.000000
vt 0.000000 0.000000
vt 0.000000 0.000000
vt 0.000000 0.000000
vt 0.000000 0.000000
vt 0.512220 0.356793
vt 0.382573 0.356793
vt 0.382573 0.299173
vt 0.512220 0.299173
vt 0.381832 0.956410
vt 0.381832 0.639495
vt 0.497074 0.639495
vt 0.497074 0.956410
vt 0.381832 0.956410
vt 0.381832 0.639495
vt 0.497074 0.639495
vt 0.497074 0.956410
vt 0.381832 0.956410
vt 0.381832 0.639495
vt 0.497074 0.639495
vt 0.497074 0.956410
vt 0.381832 0.956410
vt 0.381832 0.639495
vt 0.497074 0.639495
vt 0.497074 0.956410
vt 0.381832 0.956410
vt 0.381832 0.639495
vt 0.497074 0.639495
vt 0.497074 0.956410
vt 0.128902 0.962269
vt 0.128902 0.645354
vt 0.244144 0.645354
vt 0.244144 0.962269
vt 0.000000 0.000000
vt 0.000000 0.000000
vt 0.000000 0.000000
vt 0.000000 0.000000
vt 0.000000 0.000000
vt 0.000000 0.000000
vt 0.000000 0.000000
vt 0.000000 0.000000
vt 0.000000 0.000000
vt 0.000000 0.000000
vt 0.000000 0.000000
vt 0.000000 0.000000
vt 0.000000 0.000000
vt 0.000000 0.000000
vt 0.000000 0.000000
vt 0.000000 0.000000
vt 0.000000 0.000000
vt 0.000000 0.000000
vt 0.000000 0.000000
vt 0.000000 0.000000
vt 0.000000 0.000000
vt 0.000000 0.000000
vt 0.000000 0.000000
vt 0.000000 0.000000
vt 0.000000 0.000000
vt 0.000000 0.000000
vt 0.000000 0.000000
vt 0.000000 0.000000
vt 0.000000 0.000000
vt 0.000000 0.000000
vt 0.000000 0.000000
vt 0.000000 0.000000
vt 0.000000 0.000000
vt 0.000000 0.000000
vt 0.000000 0.000000
vt 0.000000 0.000000
vt 0.000000 0.000000
vt 0.000000 0.000000
vt 0.000000 0.000000
vt 0.000000 0.000000
vt 0.000000 0.000000
vt 0.000000 0.000000
vt 0.000000 0.000000
vt 0.000000 0.000000
vt 0.000000 0.000000
vt 0.000000 0.000000
vt 0.000000 0.000000
vt 0.000000 0.000000
vt 0.000000 0.000000
vt 0.000000 0.000000
vt 0.000000 0.000000
vt 0.000000 0.000000
vt 0.000000 0.000000
vt 0.000000 0.000000
vt 0.000000 0.000000
vt 0.000000 0.000000
vt 0.000000 0.000000
vt 0.000000 0.000000
vt 0.000000 0.000000
vt 0.000000 0.000000
vt 0.000000 0.000000
vt 0.000000 0.000000
vt 0.000000 0.000000
vt 0.000000 0.000000
vt 0.000000 0.000000
vt 0.000000 0.000000
vt 0.000000 0.000000
vt 0.000000 0.000000
vn 0.0000 1.0000 0.0000
vn 0.0000 -1.0000 -0.0000
vn 0.0000 0.0000 -1.0000
vn 1.0000 0.0000 0.0000
vn -1.0000 0.0000 0.0000
vn 0.0000 0.0000 1.0000
usemtl Material__26
s 1
f 1/1/1 2/2/1 3/3/1
f 3/3/1 4/4/1 1/1/1
f 4/4/1 3/3/1 5/5/1
f 5/5/1 6/6/1 4/4/1
f 6/6/1 5/5/1 7/7/1
f 7/7/1 8/8/1 6/6/1
f 8/8/1 7/7/1 2/2/1
f 2/2/1 1/1/1 8/8/1
f 9/9/1 10/10/1 2/11/1
f 2/11/1 7/12/1 9/9/1
f 11/13/1 7/7/1 5/5/1
f 5/5/1 12/14/1 11/13/1
f 12/14/1 5/5/1 13/15/1
f 13/15/1 14/16/1 12/14/1
f 14/16/1 13/15/1 15/17/1
f 15/17/1 16/18/1 14/16/1
f 16/18/1 15/17/1 7/7/1
f 7/7/1 11/13/1 16/18/1
f 17/19/1 9/9/1 7/12/1
f 7/12/1 15/20/1 17/19/1
f 18/21/1 15/17/1 13/15/1
f 13/15/1 19/22/1 18/21/1
f 19/22/1 13/15/1 20/23/1
f 20/23/1 21/24/1 19/22/1
f 21/24/1 20/23/1 22/25/1
f 22/25/1 23/26/1 21/24/1
f 23/26/1 22/25/1 15/17/1
f 15/17/1 18/21/1 23/26/1
f 24/27/1 17/19/1 15/20/1
f 15/20/1 22/28/1 24/27/1
f 25/29/1 22/25/1 20/23/1
f 20/23/1 26/30/1 25/29/1
f 26/30/1 20/23/1 27/31/1
f 27/31/1 28/32/1 26/30/1
f 28/32/1 27/31/1 29/33/1
f 29/33/1 30/34/1 28/32/1
f 30/34/1 29/33/1 22/25/1
f 22/25/1 25/29/1 30/34/1
f 31/35/1 24/27/1 22/28/1
f 22/28/1 29/36/1 31/35/1
f 32/37/1 29/33/1 27/31/1
f 27/31/1 33/38/1 32/37/1
f 33/38/1 27/31/1 34/39/1
f 34/39/1 35/40/1 33/38/1
f 35/40/1 34/39/1 36/41/1
f 36/41/1 37/42/1 35/40/1
f 37/42/1 36/41/1 29/33/1
f 29/33/1 32/37/1 37/42/1
f 38/43/1 31/35/1 29/36/1
f 29/36/1 36/44/1 38/43/1
f 39/45/1 40/46/1 3/3/1
f 3/3/1 2/2/1 39/45/1
f 41/47/1 39/45/1 2/2/1
f 2/2/1 10/48/1 41/47/1
f 42/49/1 43/50/1 44/51/1
f 44/51/1 45/52/1 42/49/1
f 45/52/1 44/51/1 40/46/1
f 40/46/1 46/53/1 45/52/1
f 46/53/1 40/46/1 39/45/1
f 39/45/1 47/54/1 46/53/1
f 47/54/1 39/45/1 43/50/1
f 43/50/1 42/49/1 47/54/1
f 41/55/1 48/56/1 43/57/1
f 43/57/1 39/58/1 41/55/1
f 1/59/1 4/60/1 6/61/1
f 6/61/1 8/62/1 1/59/1
f 11/63/1 12/64/1 14/65/1
f 14/65/1 16/66/1 11/63/1
f 18/67/1 19/68/1 21/69/1
f 21/69/1 23/70/1 18/67/1
f 25/71/1 26/72/1 28/73/1
f 28/73/1 30/74/1 25/71/1
f 32/75/1 33/76/1 35/77/1
f 35/77/1 37/78/1 32/75/1
f 42/79/1 45/80/1 46/81/1
f 46/81/1 47/82/1 42/79/1
f 49/83/2 50/84/2 51/85/2
f 51/85/2 52/86/2 49/83/2
f 52/86/2 51/85/2 53/87/2
f 53/87/2 54/88/2 52/86/2
f 54/88/2 53/87/2 55/89/2
f 55/89/2 56/90/2 54/88/2
f 56/90/2 55/89/2 57/91/2
f 57/91/2 58/92/2 56/90/2
f 58/92/2 57/91/2 59/93/2
f 59/93/2 60/94/2 58/92/2
f 61/95/2 62/96/2 63/97/2
f 63/97/2 49/83/2 61/95/2
f 49/83/2 63/97/2 64/98/2
f 64/98/2 50/84/2 49/83/2
f 65/99/2 66/100/2 64/98/2
f 64/98/2 63/97/2 65/99/2
f 67/101/3 68/102/3 69/103/3
f 69/103/3 70/104/3 67/101/3
f 71/105/3 67/101/3 70/104/3
f 70/104/3 72/106/3 71/105/3
f 73/107/3 71/105/3 72/106/3
f 72/106/3 74/108/3 73/107/3
f 75/109/3 73/107/3 74/108/3
f 74/108/3 76/110/3 75/109/3
f 77/111/4 78/112/4 79/113/4
f 79/113/4 80/114/4 77/111/4
f 78/112/4 81/115/4 82/116/4
f 82/116/4 79/113/4 78/112/4
f 83/117/3 75/109/3 76/110/3
f 76/110/3 84/118/3 83/117/3
f 68/102/3 85/119/3 86/120/3
f 86/120/3 69/103/3 68/102/3
f 87/121/5 88/122/5 89/123/5
f 89/123/5 90/124/5 87/121/5
f 85/119/3 91/125/3 92/126/3
f 92/126/3 86/120/3 85/119/3
f 93/127/5 87/121/5 90/124/5
f 90/124/5 94/128/5 93/127/5
f 95/129/6 96/130/6 97/131/6
f 98/132/6 95/129/6 97/131/6
f 99/133/6 100/134/6 101/135/6
f 102/136/6 99/133/6 101/135/6
f 103/137/6 102/136/6 101/135/6
f 104/138/6 103/137/6 101/135/6
f 105/139/6 104/138/6 101/135/6
f 106/140/6 105/139/6 101/135/6
f 97/131/6 106/140/6 101/135/6
f 97/131/6 101/135/6 107/141/6
f 97/131/6 107/141/6 108/142/6
f 97/131/6 108/142/6 109/143/6
f 97/131/6 109/143/6 110/144/6
f 98/132/6 97/131/6 110/144/6
f 61/95/2 49/83/2 52/86/2
f 52/86/2 111/145/2 61/95/2
f 111/145/2 52/86/2 54/88/2
f 54/88/2 112/146/2 111/145/2
f 112/146/2 54/88/2 56/90/2
f 56/90/2 113/147/2 112/146/2
f 113/147/2 56/90/2 58/92/2
f 58/92/2 114/148/2 113/147/2
f 114/148/2 58/92/2 60/94/2
f 60/94/2 115/149/2 114/148/2
f 116/150/2 65/99/2 63/97/2
f 63/97/2 62/96/2 116/150/2
