# 3ds Max Wavefront OBJ Exporter v0.97b - (c)2007 guruware
# File Created: 25.02.2022 10:50:53

#
# object Box001
#

v  9.5000 0.1250 14.0000
v  9.5000 0.1250 -14.0000
v  -9.5000 0.1250 -14.0000
v  -9.5000 0.1250 14.0000
v  9.5000 0.0000 14.0000
v  9.5000 0.0000 -14.0000
v  -9.5000 0.0000 -14.0000
v  -9.5000 0.0000 14.0000
# 8 vertices

vn 0.0000 1.0000 -0.0000
vn 1.0000 0.0000 -0.0000
vn -0.0000 0.0000 -1.0000
vn -1.0000 0.0000 0.0000
vn 0.0000 0.0000 1.0000
# 5 vertex normals

vt 0.0000 0.0000 1.0000
vt 1.0000 0.0000 1.0000
vt 1.0000 1.0000 1.0000
vt 0.0000 1.0000 1.0000
vt 0.0000 0.0000 0.0000
vt 1.0000 0.0000 0.0000
vt 1.0000 1.0000 0.0000
vt 0.0000 1.0000 0.0000
# 8 texture coords

o Box001
g Box001
s 4
f 1/1/1 2/2/1 3/3/1 
f 3/3/1 4/4/1 1/1/1 
s 8
f 5/5/2 6/6/2 2/2/2 
f 2/2/2 1/1/2 5/5/2 
s 16
f 6/6/3 7/7/3 3/3/3 
f 3/3/3 2/2/3 6/6/3 
s 32
f 7/7/4 8/8/4 4/4/4 
f 4/4/4 3/3/4 7/7/4 
s 64
f 8/8/5 5/5/5 1/1/5 
f 1/1/5 4/4/5 8/8/5 
# 10 faces

