# 3ds Max Wavefront OBJ Exporter v0.97b - (c)2007 guruware
# File Created: 12.03.2022 14:06:18

#
# object Collider_72x
#

v  147.2411 20.0000 -106.9769
v  88.9919 20.0000 -64.6564
v  88.9919 20.0000 64.6564
v  147.2411 20.0000 106.9769
v  88.9919 0.0000 64.6564
v  88.9919 0.0000 -64.6564
v  147.2411 0.0000 -106.9769
v  147.2411 0.0000 106.9769
v  205.4903 20.0000 -64.6564
v  205.4903 20.0000 64.6564
v  205.4903 0.0000 -64.6564
v  205.4903 0.0000 64.6564
# 12 vertices

vn 0.0000 1.0000 -0.0000
vn 0.0000 -1.0000 -0.0000
vn 0.0000 -1.0000 0.0000
vn -0.0000 -1.0000 -0.0000
vn -0.8910 0.0000 -0.4540
vn 0.0000 0.0000 -1.0000
vn -0.8910 0.0000 0.4540
vn 0.0000 0.0000 1.0000
vn -0.0000 -1.0000 0.0000
vn 0.8910 0.0000 -0.4540
vn 0.8910 0.0000 0.4540
# 11 vertex normals

o Collider_72x
g Collider_72x
s 1
f 1//1 2//1 3//1 
f 1//1 3//1 4//1 
f 5//2 6//3 7//4 
f 8//2 5//2 7//4 
s 1073741824
f 2//5 1//6 7//6 
f 7//6 6//5 2//5 
f 3//7 2//5 6//5 
f 6//5 5//7 3//7 
f 4//8 3//7 5//7 
f 5//7 8//8 4//8 
s 1
f 9//1 1//1 10//1 
f 10//1 1//1 4//1 
f 11//9 12//4 7//4 
f 12//4 8//2 7//4 
s 1073741824
f 1//6 9//10 7//6 
f 11//10 7//6 9//10 
f 9//10 10//11 11//10 
f 12//11 11//10 10//11 
f 10//11 4//8 12//11 
f 8//8 12//11 4//8 
# 20 faces

