# 3ds Max Wavefront OBJ Exporter v0.97b - (c)2007 guruware
# File Created: 12.03.2022 14:07:35

#
# object Desk_40x
#

v  170.1039 20.0000 -60.3165
v  104.8662 20.0000 -36.5719
v  104.8662 20.0000 36.5719
v  170.1039 20.0000 60.3165
v  104.8662 17.0000 36.5719
v  104.8662 17.0000 -36.5719
v  170.1039 17.0000 -60.3165
v  170.1039 17.0000 60.3165
v  235.3416 20.0000 -36.5719
v  235.3416 20.0000 36.5719
v  235.3416 17.0000 -36.5719
v  235.3416 17.0000 36.5719
# 12 vertices

vn 0.0000 1.0000 -0.0000
vn 0.0000 -1.0000 0.0000
vn 0.0000 -1.0000 -0.0000
vn -0.0000 -1.0000 0.0000
vn -0.3420 0.0000 -0.9397
vn -1.0000 0.0000 -0.0000
vn -0.3420 0.0000 0.9397
vn 0.3420 0.0000 -0.9397
vn 1.0000 0.0000 -0.0000
vn 0.3420 0.0000 0.9397
# 10 vertex normals

o Desk_40x
g Desk_40x
s 1
f 1//1 2//1 3//1 
f 1//1 3//1 4//1 
f 5//2 6//3 7//2 
f 8//4 5//2 7//2 
s 2
f 2//5 1//5 7//5 
f 7//5 6//5 2//5 
s 4
f 3//6 2//6 6//6 
f 6//6 5//6 3//6 
s 2
f 4//7 3//7 5//7 
f 5//7 8//7 4//7 
s 1
f 9//1 1//1 10//1 
f 10//1 1//1 4//1 
f 11//3 12//4 7//2 
f 12//4 8//4 7//2 
s 4
f 1//8 9//8 7//8 
f 11//8 7//8 9//8 
s 2
f 9//9 10//9 11//9 
f 12//9 11//9 10//9 
s 4
f 10//10 4//10 12//10 
f 8//10 12//10 4//10 
# 20 faces

