# 3ds Max Wavefront OBJ Exporter v0.97b - (c)2007 guruware
# File Created: 12.03.2022 14:07:28

#
# object Desk_40n
#

v  170.1039 20.0000 -60.3165
v  104.8662 20.0000 -36.5719
v  104.8662 20.0000 36.5719
v  170.1039 20.0000 60.3165
v  177.4902 20.0000 -32.8239
v  176.3017 20.0000 -38.7027
v  174.9187 20.0000 -44.5380
v  178.4832 20.0000 -26.9063
v  179.2793 20.0000 -20.9547
v  179.8771 20.0000 -14.9800
v  180.2757 20.0000 -8.9929
v  180.4749 20.0000 -2.9985
v  180.4749 20.0000 2.9985
v  173.3424 20.0000 -50.3250
v  180.2757 20.0000 8.9929
v  179.8771 20.0000 14.9800
v  179.2793 20.0000 20.9547
v  178.4832 20.0000 26.9063
v  177.4902 20.0000 32.8239
v  176.3017 20.0000 38.7027
v  174.9187 20.0000 44.5380
v  173.3424 20.0000 50.3250
v  171.5739 20.0000 56.0588
v  171.5739 20.0000 -56.0588
v  104.8662 17.0000 36.5719
v  104.8662 17.0000 -36.5719
v  170.1039 17.0000 -60.3165
v  170.1039 17.0000 60.3165
v  174.9187 17.0000 -44.5380
v  176.3017 17.0000 -38.7027
v  177.4902 17.0000 -32.8239
v  178.4832 17.0000 -26.9063
v  179.2793 17.0000 -20.9547
v  179.8771 17.0000 -14.9800
v  180.2757 17.0000 -8.9929
v  180.4749 17.0000 -2.9985
v  180.4749 17.0000 2.9985
v  173.3424 17.0000 -50.3250
v  180.2757 17.0000 8.9929
v  179.8771 17.0000 14.9800
v  179.2793 17.0000 20.9547
v  178.4832 17.0000 26.9063
v  177.4902 17.0000 32.8239
v  176.3017 17.0000 38.7027
v  174.9187 17.0000 44.5380
v  173.3424 17.0000 50.3250
v  171.5739 17.0000 56.0588
v  171.5739 17.0000 -56.0588
# 48 vertices

vn 0.0000 1.0000 -0.0000
vn 0.0000 -1.0000 0.0000
vn 0.0000 -1.0000 -0.0000
vn -0.0000 -1.0000 0.0000
vn -0.0000 -1.0000 -0.0000
vn -0.3420 0.0000 -0.9397
vn -1.0000 0.0000 -0.0000
vn -0.3420 0.0000 0.9397
vn 0.9767 0.0000 -0.2144
vn 0.9833 0.0000 -0.1818
vn 0.9691 0.0000 -0.2468
vn 0.9888 0.0000 -0.1491
vn 0.9932 0.0000 -0.1161
vn 0.9965 0.0000 -0.0830
vn 0.9988 0.0000 -0.0498
vn 0.9999 0.0000 -0.0166
vn 0.9999 0.0000 0.0166
vn 0.9603 0.0000 -0.2788
vn 0.9988 0.0000 0.0498
vn 0.9965 0.0000 0.0830
vn 0.9932 0.0000 0.1161
vn 0.9888 0.0000 0.1491
vn 0.9833 0.0000 0.1818
vn 0.9767 0.0000 0.2144
vn 0.9691 0.0000 0.2467
vn 0.9603 0.0000 0.2788
vn 0.9505 0.0000 0.3106
vn 0.9505 0.0000 -0.3106
vn 0.9453 0.0000 0.3263
vn 0.9452 0.0000 -0.3263
# 30 vertex normals

o Desk_40n
g Desk_40n
s 1
f 1//1 2//1 3//1 
f 1//1 3//1 4//1 
f 5//1 6//1 7//1 
f 8//1 5//1 7//1 
f 9//1 8//1 7//1 
f 10//1 9//1 7//1 
f 11//1 10//1 7//1 
f 12//1 11//1 7//1 
f 13//1 12//1 7//1 
f 13//1 7//1 14//1 
f 15//1 13//1 14//1 
f 16//1 15//1 14//1 
f 17//1 16//1 14//1 
f 18//1 17//1 14//1 
f 19//1 18//1 14//1 
f 20//1 19//1 14//1 
f 21//1 20//1 14//1 
f 22//1 21//1 14//1 
f 23//1 22//1 14//1 
f 23//1 14//1 24//1 
f 4//1 23//1 24//1 
f 1//1 4//1 24//1 
f 25//2 26//3 27//4 
f 28//4 25//2 27//4 
f 29//3 30//3 31//3 
f 29//3 31//3 32//4 
f 29//3 32//4 33//3 
f 29//3 33//3 34//3 
f 29//3 34//3 35//3 
f 29//3 35//3 36//3 
f 29//3 36//3 37//3 
f 38//2 29//3 37//3 
f 38//2 37//3 39//4 
f 38//2 39//4 40//2 
f 38//2 40//2 41//3 
f 38//2 41//3 42//3 
f 38//2 42//3 43//3 
f 38//2 43//3 44//3 
f 38//2 44//3 45//3 
f 38//2 45//3 46//3 
f 38//2 46//3 47//5 
f 48//4 38//2 47//5 
f 48//4 47//5 28//4 
f 48//4 28//4 27//4 
s 2
f 2//6 1//6 27//6 
f 27//6 26//6 2//6 
s 4
f 3//7 2//7 26//7 
f 26//7 25//7 3//7 
s 2
f 4//8 3//8 25//8 
f 25//8 28//8 4//8 
s 4
f 6//9 5//10 31//10 
f 31//10 30//9 6//9 
f 7//11 6//9 30//9 
f 30//9 29//11 7//11 
f 5//10 8//12 32//12 
f 32//12 31//10 5//10 
f 8//12 9//13 33//13 
f 33//13 32//12 8//12 
f 9//13 10//14 34//14 
f 34//14 33//13 9//13 
f 10//14 11//15 35//15 
f 35//15 34//14 10//14 
f 11//15 12//16 36//16 
f 36//16 35//15 11//15 
f 12//16 13//17 37//17 
f 37//17 36//16 12//16 
f 14//18 7//11 29//11 
f 29//11 38//18 14//18 
f 13//17 15//19 39//19 
f 39//19 37//17 13//17 
f 15//19 16//20 40//20 
f 40//20 39//19 15//19 
f 16//20 17//21 41//21 
f 41//21 40//20 16//20 
f 17//21 18//22 42//22 
f 42//22 41//21 17//21 
f 18//22 19//23 43//23 
f 43//23 42//22 18//22 
f 19//23 20//24 44//24 
f 44//24 43//23 19//23 
f 20//24 21//25 45//25 
f 45//25 44//24 20//24 
f 21//25 22//26 46//26 
f 46//26 45//25 21//25 
f 22//26 23//27 47//27 
f 47//27 46//26 22//26 
f 24//28 14//18 38//18 
f 38//18 48//28 24//28 
f 23//27 4//29 28//29 
f 28//29 47//27 23//27 
f 1//30 24//28 48//28 
f 48//28 27//30 1//30 
# 92 faces

