# Blender v2.91.0 OBJ File: ''
# www.blender.org
mtllib untitled.mtl
o Table_8p_DoubleCommon
v -108.422798 20.000000 0.000003
v -87.715897 19.999990 63.729305
v -33.504501 19.999983 103.116203
v 33.504501 19.999983 103.116203
v 87.491898 19.999990 63.892105
v 87.491898 20.000010 -63.892097
v 33.504501 20.000017 -103.116203
v -33.504501 20.000017 -103.116203
v -87.715897 20.000010 -63.729298
v -33.504501 16.999983 103.116203
v -87.715897 16.999990 63.729305
v -108.422798 17.000000 0.000003
v 87.491898 16.999990 63.892105
v 33.504501 16.999983 103.116203
v 87.491898 17.000010 -63.892097
v 33.504501 17.000017 -103.116203
v -33.504501 17.000017 -103.116203
v -87.715897 17.000010 -63.729298
vt 0.0071691 0.5
vt 0.101291 0.789679
vt 0.347707 0.96871
vt 0.652293 0.96871
vt 0.89769 0.790419
vt 0.89769 0.209581
vt 0.652293 0.03129
vt 0.347707 0.03129
vt 0.101291 0.210321
vt 0.347707 0.96871
vt 0.101291 0.789679
vt 0.0071691 0.5
vt 0.89769 0.790419
vt 0.652293 0.96871
vt 0.89769 0.209581
vt 0.652293 0.03129
vt 0.347707 0.03129
vt 0.101291 0.210321
vn 0.0000 1.0000 0.0000
vn -0.0000 -1.0000 -0.0000
vn -0.8090 -0.0000 0.5878
vn -1.0000 -0.0000 -0.0000
vn -0.3090 0.0000 0.9511
vn 0.3090 0.0000 0.9511
vn 0.5878 0.0000 0.8090
vn 1.0000 0.0000 0.0000
vn 0.3090 0.0000 -0.9511
vn 0.5878 0.0000 -0.8090
vn -0.3090 0.0000 -0.9511
vn -0.8090 0.0000 -0.5878
usemtl Default_OBJ
s 1
f 1/1/1 2/2/1 3/3/1
f 3/3/1 4/4/1 5/5/1
f 3/3/1 5/5/1 6/6/1
f 3/3/1 6/6/1 7/7/1
f 3/3/1 7/7/1 8/8/1
f 3/3/1 8/8/1 9/9/1
f 1/1/1 3/3/1 9/9/1
f 10/10/2 11/11/2 12/12/2
f 13/13/2 14/14/2 10/10/2
f 15/15/2 13/13/2 10/10/2
f 16/16/2 15/15/2 10/10/2
f 17/17/2 16/16/2 10/10/2
f 18/18/2 17/17/2 10/10/2
f 18/18/2 10/10/2 12/12/2
f 2/2/3 1/1/4 12/12/4
f 12/12/4 11/11/3 2/2/3
f 3/3/5 2/2/3 11/11/3
f 11/11/3 10/10/5 3/3/5
f 4/4/6 3/3/5 10/10/5
f 10/10/5 14/14/6 4/4/6
f 5/5/7 4/4/6 14/14/6
f 14/14/6 13/13/7 5/5/7
f 6/6/8 5/5/8 13/13/8
f 13/13/8 15/15/8 6/6/8
f 7/7/9 6/6/10 15/15/10
f 15/15/10 16/16/9 7/7/9
f 8/8/11 7/7/9 16/16/9
f 16/16/9 17/17/11 8/8/11
f 9/9/12 8/8/11 17/17/11
f 17/17/11 18/18/12 9/9/12
f 1/1/4 9/9/12 18/18/12
f 18/18/12 12/12/4 1/1/4
