# 3ds Max Wavefront OBJ Exporter v0.97b - (c)2007 guruware
# File Created: 12.03.2022 14:08:04

#
# object Table_8p_DoubleCommon
#

v  -108.4228 20.0000 0.0000
v  -87.7159 20.0000 63.7293
v  -33.5045 20.0000 103.1162
v  33.5045 20.0000 103.1162
v  87.4919 20.0000 63.8921
v  87.4919 20.0000 -63.8921
v  33.5045 20.0000 -103.1162
v  -33.5045 20.0000 -103.1162
v  -87.7159 20.0000 -63.7293
v  -33.5045 17.0000 103.1162
v  -87.7159 17.0000 63.7293
v  -108.4228 17.0000 0.0000
v  87.4919 17.0000 63.8921
v  33.5045 17.0000 103.1162
v  87.4919 17.0000 -63.8921
v  33.5045 17.0000 -103.1162
v  -33.5045 17.0000 -103.1162
v  -87.7159 17.0000 -63.7293
# 18 vertices

vn 0.0000 1.0000 -0.0000
vn -0.0000 -1.0000 0.0000
vn 0.0000 -1.0000 0.0000
vn 0.0000 -1.0000 -0.0000
vn -0.8090 0.0000 0.5878
vn -1.0000 0.0000 0.0000
vn -0.3090 0.0000 0.9511
vn 0.3090 0.0000 0.9511
vn 0.5878 0.0000 0.8090
vn 1.0000 0.0000 -0.0000
vn 0.3090 0.0000 -0.9511
vn 0.5878 0.0000 -0.8090
vn -0.3090 0.0000 -0.9511
vn -0.8090 0.0000 -0.5878
# 14 vertex normals

o Table_8p_DoubleCommon
g Table_8p_DoubleCommon
s 1
f 1//1 2//1 3//1 
f 3//1 4//1 5//1 
f 3//1 5//1 6//1 
f 3//1 6//1 7//1 
f 3//1 7//1 8//1 
f 3//1 8//1 9//1 
f 1//1 3//1 9//1 
f 10//2 11//2 12//2 
f 13//3 14//3 10//2 
f 15//4 13//3 10//2 
f 16//4 15//4 10//2 
f 17//4 16//4 10//2 
f 18//4 17//4 10//2 
f 18//4 10//2 12//2 
s 2
f 2//5 1//6 12//6 
f 12//6 11//5 2//5 
f 3//7 2//5 11//5 
f 11//5 10//7 3//7 
f 4//8 3//7 10//7 
f 10//7 14//8 4//8 
f 5//9 4//8 14//8 
f 14//8 13//9 5//9 
s 4
f 6//10 5//10 13//10 
f 13//10 15//10 6//10 
s 2
f 7//11 6//12 15//12 
f 15//12 16//11 7//11 
f 8//13 7//11 16//11 
f 16//11 17//13 8//13 
f 9//14 8//13 17//13 
f 17//13 18//14 9//14 
f 1//6 9//14 18//14 
f 18//14 12//6 1//6 
# 32 faces

